M48
INCH,TZ
T1C0.0315
T2C0.0339
T3C0.0354
T4C0.0400
T5C0.0433
T6C0.0472
T7C0.0512
T8C0.0551
%
G90
G05
T1
X3750Y26131
X3750Y25131
X3266Y36000
X4250Y36000
X20000Y12500
X20000Y11500
X3266Y38000
X4250Y38000
X17275Y25125
X18275Y25125
X3266Y34500
X4250Y34500
X3766Y27500
X4750Y27500
T2
X15750Y23000
X16250Y23000
X16750Y23000
T3
X20000Y15000
X20000Y14000
T4
X750Y43000
X750Y42000
X750Y41000
X750Y40000
X750Y39000
X750Y38000
X750Y37000
X750Y36000
X750Y35000
X750Y34000
X750Y33000
X750Y32000
X750Y31000
X750Y30000
X750Y29000
X750Y28000
X750Y27000
X750Y26000
X750Y25000
X750Y24000
X750Y23000
X750Y22000
X750Y21000
X1750Y43000
X1750Y42000
X1750Y41000
X1750Y40000
X1750Y39000
X1750Y38000
X1750Y37000
X1750Y36000
X1750Y35000
X1750Y34000
X1750Y33000
X1750Y32000
X1750Y31000
X1750Y30000
X1750Y29000
X1750Y28000
X1750Y27000
X1750Y26000
X1750Y25000
X1750Y24000
X1750Y23000
X1750Y22000
X1750Y21000
X19750Y43000
X19750Y42000
X19750Y41000
X19750Y40000
X19750Y39000
X19750Y38000
X19750Y37000
X19750Y36000
X19750Y35000
X19750Y34000
X19750Y33000
X19750Y32000
X19750Y31000
X19750Y30000
X19750Y29000
X19750Y28000
X19750Y27000
X19750Y26000
X19750Y25000
X19750Y24000
X19750Y23000
X19750Y22000
X19750Y21000
X20750Y43000
X20750Y42000
X20750Y41000
X20750Y40000
X20750Y39000
X20750Y38000
X20750Y37000
X20750Y36000
X20750Y35000
X20750Y34000
X20750Y33000
X20750Y32000
X20750Y31000
X20750Y30000
X20750Y29000
X20750Y28000
X20750Y27000
X20750Y26000
X20750Y25000
X20750Y24000
X20750Y23000
X20750Y22000
X20750Y21000
T5
X10451Y39016
X11435Y38110
X13049Y38228
T6
X10000Y23000
X14000Y23000
X4000Y12500
X7976Y12500
X12976Y12500
X14984Y12500
T7
X5750Y41984
X5750Y40016
X7516Y3000
X9484Y3000
X16256Y1920
X18224Y1920
X2016Y2500
X3984Y2500
X7750Y31984
X7750Y30016
T8
X11731Y6240
X20589Y6240
X851Y7620
X9709Y7620
T0
M30
