G04 #@! TF.GenerationSoftware,KiCad,Pcbnew,5.1.5-1.fc30*
G04 #@! TF.CreationDate,2020-06-02T12:14:53+03:00*
G04 #@! TF.ProjectId,savustin_real2,73617675-7374-4696-9e5f-7265616c322e,rev?*
G04 #@! TF.SameCoordinates,PX6d2994cPYa3a71e0*
G04 #@! TF.FileFunction,Legend,Top*
G04 #@! TF.FilePolarity,Positive*
%FSLAX46Y46*%
G04 Gerber Fmt 4.6, Leading zero omitted, Abs format (unit mm)*
G04 Created by KiCad (PCBNEW 5.1.5-1.fc30) date 2020-06-02 12:14:53*
%MOMM*%
%LPD*%
G04 APERTURE LIST*
%ADD10C,0.150000*%
%ADD11C,0.300000*%
%ADD12C,0.200000*%
%ADD13C,0.101600*%
%ADD14C,0.152400*%
%ADD15C,0.066040*%
%ADD16C,0.400000*%
%ADD17C,0.127000*%
%ADD18C,0.120000*%
%ADD19C,0.100000*%
%ADD20C,0.254000*%
%ADD21C,0.025400*%
%ADD22C,0.015000*%
G04 APERTURE END LIST*
D10*
X33274000Y26416000D02*
X54102000Y25146000D01*
X25400000Y36068000D02*
X33274000Y26416000D01*
X508000Y36068000D02*
X25400000Y36068000D01*
D11*
X20277142Y2853429D02*
X20777142Y1353429D01*
X21277142Y2853429D01*
X21705714Y1782000D02*
X22420000Y1782000D01*
X21562857Y1353429D02*
X22062857Y2853429D01*
X22562857Y1353429D01*
X23920000Y1353429D02*
X23420000Y2067715D01*
X23062857Y1353429D02*
X23062857Y2853429D01*
X23634285Y2853429D01*
X23777142Y2782000D01*
X23848571Y2710572D01*
X23920000Y2567715D01*
X23920000Y2353429D01*
X23848571Y2210572D01*
X23777142Y2139143D01*
X23634285Y2067715D01*
X23062857Y2067715D01*
X24848571Y2853429D02*
X25134285Y2853429D01*
X25277142Y2782000D01*
X25420000Y2639143D01*
X25491428Y2353429D01*
X25491428Y1853429D01*
X25420000Y1567715D01*
X25277142Y1424858D01*
X25134285Y1353429D01*
X24848571Y1353429D01*
X24705714Y1424858D01*
X24562857Y1567715D01*
X24491428Y1853429D01*
X24491428Y2353429D01*
X24562857Y2639143D01*
X24705714Y2782000D01*
X24848571Y2853429D01*
X26134285Y1496286D02*
X26205714Y1424858D01*
X26134285Y1353429D01*
X26062857Y1424858D01*
X26134285Y1496286D01*
X26134285Y1353429D01*
X26134285Y1924858D02*
X26062857Y2782000D01*
X26134285Y2853429D01*
X26205714Y2782000D01*
X26134285Y1924858D01*
X26134285Y2853429D01*
X27920000Y2710572D02*
X27991428Y2782000D01*
X28134285Y2853429D01*
X28491428Y2853429D01*
X28634285Y2782000D01*
X28705714Y2710572D01*
X28777142Y2567715D01*
X28777142Y2424858D01*
X28705714Y2210572D01*
X27848571Y1353429D01*
X28777142Y1353429D01*
X30062857Y2353429D02*
X30062857Y1353429D01*
X29705714Y2924858D02*
X29348571Y1853429D01*
X30277142Y1853429D01*
X31134285Y2853429D02*
X31277142Y2853429D01*
X31420000Y2782000D01*
X31491428Y2710572D01*
X31562857Y2567715D01*
X31634285Y2282000D01*
X31634285Y1924858D01*
X31562857Y1639143D01*
X31491428Y1496286D01*
X31420000Y1424858D01*
X31277142Y1353429D01*
X31134285Y1353429D01*
X30991428Y1424858D01*
X30920000Y1496286D01*
X30848571Y1639143D01*
X30777142Y1924858D01*
X30777142Y2282000D01*
X30848571Y2567715D01*
X30920000Y2710572D01*
X30991428Y2782000D01*
X31134285Y2853429D01*
X32062857Y2853429D02*
X32562857Y1353429D01*
X33062857Y2853429D01*
X1735142Y13521429D02*
X2235142Y12021429D01*
X2735142Y13521429D01*
X3163714Y12450000D02*
X3878000Y12450000D01*
X3020857Y12021429D02*
X3520857Y13521429D01*
X4020857Y12021429D01*
X5378000Y12021429D02*
X4878000Y12735715D01*
X4520857Y12021429D02*
X4520857Y13521429D01*
X5092285Y13521429D01*
X5235142Y13450000D01*
X5306571Y13378572D01*
X5378000Y13235715D01*
X5378000Y13021429D01*
X5306571Y12878572D01*
X5235142Y12807143D01*
X5092285Y12735715D01*
X4520857Y12735715D01*
X6306571Y13521429D02*
X6592285Y13521429D01*
X6735142Y13450000D01*
X6878000Y13307143D01*
X6949428Y13021429D01*
X6949428Y12521429D01*
X6878000Y12235715D01*
X6735142Y12092858D01*
X6592285Y12021429D01*
X6306571Y12021429D01*
X6163714Y12092858D01*
X6020857Y12235715D01*
X5949428Y12521429D01*
X5949428Y13021429D01*
X6020857Y13307143D01*
X6163714Y13450000D01*
X6306571Y13521429D01*
X7592285Y12164286D02*
X7663714Y12092858D01*
X7592285Y12021429D01*
X7520857Y12092858D01*
X7592285Y12164286D01*
X7592285Y12021429D01*
X7592285Y12592858D02*
X7520857Y13450000D01*
X7592285Y13521429D01*
X7663714Y13450000D01*
X7592285Y12592858D01*
X7592285Y13521429D01*
X9378000Y13378572D02*
X9449428Y13450000D01*
X9592285Y13521429D01*
X9949428Y13521429D01*
X10092285Y13450000D01*
X10163714Y13378572D01*
X10235142Y13235715D01*
X10235142Y13092858D01*
X10163714Y12878572D01*
X9306571Y12021429D01*
X10235142Y12021429D01*
X11520857Y13021429D02*
X11520857Y12021429D01*
X11163714Y13592858D02*
X10806571Y12521429D01*
X11735142Y12521429D01*
X12592285Y13521429D02*
X12735142Y13521429D01*
X12878000Y13450000D01*
X12949428Y13378572D01*
X13020857Y13235715D01*
X13092285Y12950000D01*
X13092285Y12592858D01*
X13020857Y12307143D01*
X12949428Y12164286D01*
X12878000Y12092858D01*
X12735142Y12021429D01*
X12592285Y12021429D01*
X12449428Y12092858D01*
X12378000Y12164286D01*
X12306571Y12307143D01*
X12235142Y12592858D01*
X12235142Y12950000D01*
X12306571Y13235715D01*
X12378000Y13378572D01*
X12449428Y13450000D01*
X12592285Y13521429D01*
X13520857Y13521429D02*
X14020857Y12021429D01*
X14520857Y13521429D01*
D10*
X2830628Y1544629D02*
X2973485Y1497010D01*
X3021104Y1449391D01*
X3068723Y1354153D01*
X3068723Y1211296D01*
X3021104Y1116058D01*
X2973485Y1068439D01*
X2878247Y1020820D01*
X2497295Y1020820D01*
X2497295Y2020820D01*
X2830628Y2020820D01*
X2925866Y1973200D01*
X2973485Y1925581D01*
X3021104Y1830343D01*
X3021104Y1735105D01*
X2973485Y1639867D01*
X2925866Y1592248D01*
X2830628Y1544629D01*
X2497295Y1544629D01*
X3830628Y1544629D02*
X3973485Y1497010D01*
X4021104Y1449391D01*
X4068723Y1354153D01*
X4068723Y1211296D01*
X4021104Y1116058D01*
X3973485Y1068439D01*
X3878247Y1020820D01*
X3497295Y1020820D01*
X3497295Y2020820D01*
X3830628Y2020820D01*
X3925866Y1973200D01*
X3973485Y1925581D01*
X4021104Y1830343D01*
X4021104Y1735105D01*
X3973485Y1639867D01*
X3925866Y1592248D01*
X3830628Y1544629D01*
X3497295Y1544629D01*
X4830628Y1544629D02*
X4973485Y1497010D01*
X5021104Y1449391D01*
X5068723Y1354153D01*
X5068723Y1211296D01*
X5021104Y1116058D01*
X4973485Y1068439D01*
X4878247Y1020820D01*
X4497295Y1020820D01*
X4497295Y2020820D01*
X4830628Y2020820D01*
X4925866Y1973200D01*
X4973485Y1925581D01*
X5021104Y1830343D01*
X5021104Y1735105D01*
X4973485Y1639867D01*
X4925866Y1592248D01*
X4830628Y1544629D01*
X4497295Y1544629D01*
D11*
X16002142Y96627143D02*
X15502142Y96627143D01*
X15502142Y95841429D02*
X15502142Y97341429D01*
X16216428Y97341429D01*
X17430714Y95841429D02*
X17430714Y96627143D01*
X17359285Y96770000D01*
X17216428Y96841429D01*
X16930714Y96841429D01*
X16787857Y96770000D01*
X17430714Y95912858D02*
X17287857Y95841429D01*
X16930714Y95841429D01*
X16787857Y95912858D01*
X16716428Y96055715D01*
X16716428Y96198572D01*
X16787857Y96341429D01*
X16930714Y96412858D01*
X17287857Y96412858D01*
X17430714Y96484286D01*
X18145000Y96841429D02*
X18145000Y95841429D01*
X18145000Y96698572D02*
X18216428Y96770000D01*
X18359285Y96841429D01*
X18573571Y96841429D01*
X18716428Y96770000D01*
X18787857Y96627143D01*
X18787857Y95841429D01*
D10*
X23694190Y93829239D02*
X23837047Y93781620D01*
X24075142Y93781620D01*
X24170380Y93829239D01*
X24218000Y93876858D01*
X24265619Y93972096D01*
X24265619Y94067334D01*
X24218000Y94162572D01*
X24170380Y94210191D01*
X24075142Y94257810D01*
X23884666Y94305429D01*
X23789428Y94353048D01*
X23741809Y94400667D01*
X23694190Y94495905D01*
X23694190Y94591143D01*
X23741809Y94686381D01*
X23789428Y94734000D01*
X23884666Y94781620D01*
X24122761Y94781620D01*
X24265619Y94734000D01*
X25122761Y93781620D02*
X25122761Y94305429D01*
X25075142Y94400667D01*
X24979904Y94448286D01*
X24789428Y94448286D01*
X24694190Y94400667D01*
X25122761Y93829239D02*
X25027523Y93781620D01*
X24789428Y93781620D01*
X24694190Y93829239D01*
X24646571Y93924477D01*
X24646571Y94019715D01*
X24694190Y94114953D01*
X24789428Y94162572D01*
X25027523Y94162572D01*
X25122761Y94210191D01*
X25598952Y94448286D02*
X25598952Y93448286D01*
X25598952Y94400667D02*
X25694190Y94448286D01*
X25884666Y94448286D01*
X25979904Y94400667D01*
X26027523Y94353048D01*
X26075142Y94257810D01*
X26075142Y93972096D01*
X26027523Y93876858D01*
X25979904Y93829239D01*
X25884666Y93781620D01*
X25694190Y93781620D01*
X25598952Y93829239D01*
X26932285Y94448286D02*
X26932285Y93781620D01*
X26503714Y94448286D02*
X26503714Y93924477D01*
X26551333Y93829239D01*
X26646571Y93781620D01*
X26789428Y93781620D01*
X26884666Y93829239D01*
X26932285Y93876858D01*
X27360857Y93829239D02*
X27456095Y93781620D01*
X27646571Y93781620D01*
X27741809Y93829239D01*
X27789428Y93924477D01*
X27789428Y93972096D01*
X27741809Y94067334D01*
X27646571Y94114953D01*
X27503714Y94114953D01*
X27408476Y94162572D01*
X27360857Y94257810D01*
X27360857Y94305429D01*
X27408476Y94400667D01*
X27503714Y94448286D01*
X27646571Y94448286D01*
X27741809Y94400667D01*
X28218000Y93781620D02*
X28218000Y94781620D01*
X28313238Y94162572D02*
X28598952Y93781620D01*
X28598952Y94448286D02*
X28218000Y94067334D01*
X29456095Y93781620D02*
X29456095Y94305429D01*
X29408476Y94400667D01*
X29313238Y94448286D01*
X29122761Y94448286D01*
X29027523Y94400667D01*
X29456095Y93829239D02*
X29360857Y93781620D01*
X29122761Y93781620D01*
X29027523Y93829239D01*
X28979904Y93924477D01*
X28979904Y94019715D01*
X29027523Y94114953D01*
X29122761Y94162572D01*
X29360857Y94162572D01*
X29456095Y94210191D01*
X29932285Y94448286D02*
X29932285Y93781620D01*
X29932285Y94353048D02*
X29979904Y94400667D01*
X30075142Y94448286D01*
X30218000Y94448286D01*
X30313238Y94400667D01*
X30360857Y94305429D01*
X30360857Y93781620D01*
X31741809Y93781620D02*
X31646571Y93829239D01*
X31598952Y93924477D01*
X31598952Y94781620D01*
X32551333Y93781620D02*
X32551333Y94305429D01*
X32503714Y94400667D01*
X32408476Y94448286D01*
X32218000Y94448286D01*
X32122761Y94400667D01*
X32551333Y93829239D02*
X32456095Y93781620D01*
X32218000Y93781620D01*
X32122761Y93829239D01*
X32075142Y93924477D01*
X32075142Y94019715D01*
X32122761Y94114953D01*
X32218000Y94162572D01*
X32456095Y94162572D01*
X32551333Y94210191D01*
X33027523Y93781620D02*
X33027523Y94448286D01*
X33027523Y94353048D02*
X33075142Y94400667D01*
X33170380Y94448286D01*
X33313238Y94448286D01*
X33408476Y94400667D01*
X33456095Y94305429D01*
X33456095Y93781620D01*
X33456095Y94305429D02*
X33503714Y94400667D01*
X33598952Y94448286D01*
X33741809Y94448286D01*
X33837047Y94400667D01*
X33884666Y94305429D01*
X33884666Y93781620D01*
X34360857Y94448286D02*
X34360857Y93448286D01*
X34360857Y94400667D02*
X34456095Y94448286D01*
X34646571Y94448286D01*
X34741809Y94400667D01*
X34789428Y94353048D01*
X34837047Y94257810D01*
X34837047Y93972096D01*
X34789428Y93876858D01*
X34741809Y93829239D01*
X34646571Y93781620D01*
X34456095Y93781620D01*
X34360857Y93829239D01*
X35408476Y93781620D02*
X35313238Y93829239D01*
X35265619Y93876858D01*
X35218000Y93972096D01*
X35218000Y94257810D01*
X35265619Y94353048D01*
X35313238Y94400667D01*
X35408476Y94448286D01*
X35551333Y94448286D01*
X35646571Y94400667D01*
X35694190Y94353048D01*
X35741809Y94257810D01*
X35741809Y93972096D01*
X35694190Y93876858D01*
X35646571Y93829239D01*
X35551333Y93781620D01*
X35408476Y93781620D01*
X26503380Y77438429D02*
X27312904Y77438429D01*
X27408142Y77486048D01*
X27455761Y77533667D01*
X27503380Y77628905D01*
X27503380Y77819381D01*
X27455761Y77914620D01*
X27408142Y77962239D01*
X27312904Y78009858D01*
X26503380Y78009858D01*
X26836714Y78914620D02*
X27503380Y78914620D01*
X26836714Y78486048D02*
X27360523Y78486048D01*
X27455761Y78533667D01*
X27503380Y78628905D01*
X27503380Y78771762D01*
X27455761Y78867000D01*
X27408142Y78914620D01*
X26836714Y79390810D02*
X27503380Y79390810D01*
X26931952Y79390810D02*
X26884333Y79438429D01*
X26836714Y79533667D01*
X26836714Y79676524D01*
X26884333Y79771762D01*
X26979571Y79819381D01*
X27503380Y79819381D01*
X27503380Y80295572D02*
X26836714Y80295572D01*
X26503380Y80295572D02*
X26551000Y80247953D01*
X26598619Y80295572D01*
X26551000Y80343191D01*
X26503380Y80295572D01*
X26598619Y80295572D01*
X50733390Y2290820D02*
X50733390Y3290820D01*
X51209580Y2290820D02*
X51209580Y3290820D01*
X51781009Y2290820D01*
X51781009Y3290820D01*
X29452819Y6791200D02*
X29452819Y6600724D01*
X29405200Y6505486D01*
X29309961Y6410248D01*
X29119485Y6362629D01*
X28786152Y6362629D01*
X28595676Y6410248D01*
X28500438Y6505486D01*
X28452819Y6600724D01*
X28452819Y6791200D01*
X28500438Y6886439D01*
X28595676Y6981677D01*
X28786152Y7029296D01*
X29119485Y7029296D01*
X29309961Y6981677D01*
X29405200Y6886439D01*
X29452819Y6791200D01*
X29452819Y5934058D02*
X28643295Y5934058D01*
X28548057Y5886439D01*
X28500438Y5838820D01*
X28452819Y5743581D01*
X28452819Y5553105D01*
X28500438Y5457867D01*
X28548057Y5410248D01*
X28643295Y5362629D01*
X29452819Y5362629D01*
X29452819Y5029296D02*
X29452819Y4457867D01*
X28452819Y4743581D02*
X29452819Y4743581D01*
D11*
X1310857Y35365429D02*
X1810857Y33865429D01*
X2310857Y35365429D01*
X2739428Y34294000D02*
X3453714Y34294000D01*
X2596571Y33865429D02*
X3096571Y35365429D01*
X3596571Y33865429D01*
X4953714Y33865429D02*
X4453714Y34579715D01*
X4096571Y33865429D02*
X4096571Y35365429D01*
X4668000Y35365429D01*
X4810857Y35294000D01*
X4882285Y35222572D01*
X4953714Y35079715D01*
X4953714Y34865429D01*
X4882285Y34722572D01*
X4810857Y34651143D01*
X4668000Y34579715D01*
X4096571Y34579715D01*
X5882285Y35365429D02*
X6168000Y35365429D01*
X6310857Y35294000D01*
X6453714Y35151143D01*
X6525142Y34865429D01*
X6525142Y34365429D01*
X6453714Y34079715D01*
X6310857Y33936858D01*
X6168000Y33865429D01*
X5882285Y33865429D01*
X5739428Y33936858D01*
X5596571Y34079715D01*
X5525142Y34365429D01*
X5525142Y34865429D01*
X5596571Y35151143D01*
X5739428Y35294000D01*
X5882285Y35365429D01*
X7168000Y34008286D02*
X7239428Y33936858D01*
X7168000Y33865429D01*
X7096571Y33936858D01*
X7168000Y34008286D01*
X7168000Y33865429D01*
X7168000Y34436858D02*
X7096571Y35294000D01*
X7168000Y35365429D01*
X7239428Y35294000D01*
X7168000Y34436858D01*
X7168000Y35365429D01*
X8953714Y35222572D02*
X9025142Y35294000D01*
X9168000Y35365429D01*
X9525142Y35365429D01*
X9668000Y35294000D01*
X9739428Y35222572D01*
X9810857Y35079715D01*
X9810857Y34936858D01*
X9739428Y34722572D01*
X8882285Y33865429D01*
X9810857Y33865429D01*
X11096571Y34865429D02*
X11096571Y33865429D01*
X10739428Y35436858D02*
X10382285Y34365429D01*
X11310857Y34365429D01*
X12168000Y35365429D02*
X12310857Y35365429D01*
X12453714Y35294000D01*
X12525142Y35222572D01*
X12596571Y35079715D01*
X12668000Y34794000D01*
X12668000Y34436858D01*
X12596571Y34151143D01*
X12525142Y34008286D01*
X12453714Y33936858D01*
X12310857Y33865429D01*
X12168000Y33865429D01*
X12025142Y33936858D01*
X11953714Y34008286D01*
X11882285Y34151143D01*
X11810857Y34436858D01*
X11810857Y34794000D01*
X11882285Y35079715D01*
X11953714Y35222572D01*
X12025142Y35294000D01*
X12168000Y35365429D01*
X13096571Y35365429D02*
X13596571Y33865429D01*
X14096571Y35365429D01*
X16382285Y33865429D02*
X16382285Y34651143D01*
X16310857Y34794000D01*
X16168000Y34865429D01*
X15882285Y34865429D01*
X15739428Y34794000D01*
X16382285Y33936858D02*
X16239428Y33865429D01*
X15882285Y33865429D01*
X15739428Y33936858D01*
X15668000Y34079715D01*
X15668000Y34222572D01*
X15739428Y34365429D01*
X15882285Y34436858D01*
X16239428Y34436858D01*
X16382285Y34508286D01*
X17310857Y33865429D02*
X17168000Y33936858D01*
X17096571Y34079715D01*
X17096571Y35365429D01*
X18525142Y34865429D02*
X18525142Y33865429D01*
X17882285Y34865429D02*
X17882285Y34079715D01*
X17953714Y33936858D01*
X18096571Y33865429D01*
X18310857Y33865429D01*
X18453714Y33936858D01*
X18525142Y34008286D01*
X19810857Y33936858D02*
X19668000Y33865429D01*
X19382285Y33865429D01*
X19239428Y33936858D01*
X19168000Y34079715D01*
X19168000Y34651143D01*
X19239428Y34794000D01*
X19382285Y34865429D01*
X19668000Y34865429D01*
X19810857Y34794000D01*
X19882285Y34651143D01*
X19882285Y34508286D01*
X19168000Y34365429D01*
X25082571Y75838858D02*
X26225428Y75838858D01*
X25209571Y81299858D02*
X26352428Y81299858D01*
X25781000Y80728429D02*
X25781000Y81871286D01*
D12*
X24661200Y14554800D02*
X24661200Y18045800D01*
X2161200Y14554800D02*
X2161200Y17705800D01*
X2161200Y24154800D02*
X2161200Y20662800D01*
X24661200Y24154800D02*
X24661200Y20614800D01*
X2161200Y24154800D02*
X24661200Y24154800D01*
X24661200Y14554800D02*
X2161200Y14554800D01*
X29796400Y20649600D02*
X29796400Y17158600D01*
X52296400Y20649600D02*
X52296400Y17498600D01*
X52296400Y11049600D02*
X52296400Y14541600D01*
X29796400Y11049600D02*
X29796400Y14589600D01*
X52296400Y11049600D02*
X29796400Y11049600D01*
X29796400Y20649600D02*
X52296400Y20649600D01*
D13*
X13562579Y79502000D02*
G75*
G03X13562579Y79502000I-100579J0D01*
G01*
D14*
X13154660Y75669140D02*
X13154660Y79270860D01*
X8435340Y75669140D02*
X13154660Y75669140D01*
X8435340Y79270860D02*
X8435340Y75669140D01*
X13154660Y79270860D02*
X8435340Y79270860D01*
D15*
X9067800Y75615800D02*
X9067800Y74599800D01*
X9067800Y74599800D02*
X8712200Y74599800D01*
X8712200Y75615800D02*
X8712200Y74599800D01*
X9067800Y75615800D02*
X8712200Y75615800D01*
X10337800Y75615800D02*
X10337800Y74599800D01*
X10337800Y74599800D02*
X9982200Y74599800D01*
X9982200Y75615800D02*
X9982200Y74599800D01*
X10337800Y75615800D02*
X9982200Y75615800D01*
X11607800Y75615800D02*
X11607800Y74599800D01*
X11607800Y74599800D02*
X11252200Y74599800D01*
X11252200Y75615800D02*
X11252200Y74599800D01*
X11607800Y75615800D02*
X11252200Y75615800D01*
X12877800Y75615800D02*
X12877800Y74599800D01*
X12877800Y74599800D02*
X12522200Y74599800D01*
X12522200Y75615800D02*
X12522200Y74599800D01*
X12877800Y75615800D02*
X12522200Y75615800D01*
X9067800Y80340200D02*
X9067800Y79324200D01*
X9067800Y79324200D02*
X8712200Y79324200D01*
X8712200Y80340200D02*
X8712200Y79324200D01*
X9067800Y80340200D02*
X8712200Y80340200D01*
X10337800Y80340200D02*
X10337800Y79324200D01*
X10337800Y79324200D02*
X9982200Y79324200D01*
X9982200Y80340200D02*
X9982200Y79324200D01*
X10337800Y80340200D02*
X9982200Y80340200D01*
X11607800Y80340200D02*
X11607800Y79324200D01*
X11607800Y79324200D02*
X11252200Y79324200D01*
X11252200Y80340200D02*
X11252200Y79324200D01*
X11607800Y80340200D02*
X11252200Y80340200D01*
X12877800Y80340200D02*
X12877800Y79324200D01*
X12877800Y79324200D02*
X12522200Y79324200D01*
X12522200Y80340200D02*
X12522200Y79324200D01*
X12877800Y80340200D02*
X12522200Y80340200D01*
D16*
X26315000Y95290000D02*
G75*
G03X26315000Y95290000I-200000J0D01*
G01*
D17*
X31545000Y109600000D02*
X31545000Y106600000D01*
X26545000Y109600000D02*
X31545000Y109600000D01*
X26545000Y106600000D02*
X26545000Y109600000D01*
X31995000Y96600000D02*
X30295000Y96600000D01*
X25645000Y96600000D02*
X27795000Y96600000D01*
X25645000Y97900000D02*
X25645000Y96600000D01*
X25645000Y106600000D02*
X25645000Y100450000D01*
X26545000Y106600000D02*
X25645000Y106600000D01*
X31545000Y106600000D02*
X26545000Y106600000D01*
X34045000Y106600000D02*
X31545000Y106600000D01*
X34045000Y97950000D02*
X34045000Y106600000D01*
D18*
X27700000Y60340000D02*
X27700000Y56500000D01*
X27940000Y60340000D02*
X27940000Y56500000D01*
X27820000Y60340000D02*
X27820000Y56500000D01*
X34400000Y56500000D02*
X34400000Y56980000D01*
X26560000Y56500000D02*
X34400000Y56500000D01*
X26560000Y56980000D02*
X26560000Y56500000D01*
X34400000Y60340000D02*
X34400000Y59860000D01*
X26560000Y60340000D02*
X34400000Y60340000D01*
X26560000Y59860000D02*
X26560000Y60340000D01*
X49720000Y38390000D02*
X49564000Y38390000D01*
X52036000Y38390000D02*
X51880000Y38390000D01*
X49720163Y35788870D02*
G75*
G02X49720000Y37870961I1079837J1041130D01*
G01*
X51879837Y35788870D02*
G75*
G03X51880000Y37870961I-1079837J1041130D01*
G01*
X49721392Y35157665D02*
G75*
G02X49564484Y38390000I1078608J1672335D01*
G01*
X51878608Y35157665D02*
G75*
G03X52035516Y38390000I-1078608J1672335D01*
G01*
X8553620Y65027725D02*
G75*
G02X10325000Y64919228I971380J1344775D01*
G01*
X49828620Y30405225D02*
G75*
G02X51600000Y30296728I971380J1344775D01*
G01*
X45223275Y62846120D02*
G75*
G02X45331772Y64617500I-1344775J971380D01*
G01*
D12*
X10210000Y26750000D02*
G75*
G02X10010000Y26750000I-100000J0D01*
G01*
X10010000Y26750000D02*
G75*
G02X10210000Y26750000I100000J0D01*
G01*
X10010000Y26750000D02*
X10010000Y26750000D01*
X10210000Y26750000D02*
X10210000Y26750000D01*
D19*
X45660000Y50050000D02*
X45660000Y27250000D01*
X2560000Y50050000D02*
X45660000Y50050000D01*
X2560000Y27250000D02*
X2560000Y50050000D01*
X45660000Y27250000D02*
X2560000Y27250000D01*
D12*
X2520000Y5550000D02*
X2520000Y10650000D01*
X1920000Y5625000D02*
X2520000Y5550000D01*
X1920000Y4575000D02*
X1920000Y5625000D01*
X2520000Y4650000D02*
X1920000Y4575000D01*
X2520000Y2950000D02*
X2520000Y4650000D01*
X12720000Y2950000D02*
X2520000Y2950000D01*
X12720000Y8650000D02*
X12720000Y2950000D01*
X13320000Y8600000D02*
X12720000Y8650000D01*
X13320000Y9750000D02*
X13320000Y8600000D01*
X12720000Y9700000D02*
X13320000Y9750000D01*
X12720000Y10650000D02*
X12720000Y9700000D01*
X2520000Y10650000D02*
X12720000Y10650000D01*
X15405000Y99040000D02*
X10305000Y99040000D01*
X15330000Y98440000D02*
X15405000Y99040000D01*
X16380000Y98440000D02*
X15330000Y98440000D01*
X16305000Y99040000D02*
X16380000Y98440000D01*
X18005000Y99040000D02*
X16305000Y99040000D01*
X18005000Y109240000D02*
X18005000Y99040000D01*
X12305000Y109240000D02*
X18005000Y109240000D01*
X12355000Y109840000D02*
X12305000Y109240000D01*
X11205000Y109840000D02*
X12355000Y109840000D01*
X11255000Y109240000D02*
X11205000Y109840000D01*
X10305000Y109240000D02*
X11255000Y109240000D01*
X10305000Y99040000D02*
X10305000Y109240000D01*
X38689600Y4076800D02*
X38689600Y9176800D01*
X38089600Y4151800D02*
X38689600Y4076800D01*
X38089600Y3101800D02*
X38089600Y4151800D01*
X38689600Y3176800D02*
X38089600Y3101800D01*
X38689600Y1476800D02*
X38689600Y3176800D01*
X48889600Y1476800D02*
X38689600Y1476800D01*
X48889600Y7176800D02*
X48889600Y1476800D01*
X49489600Y7126800D02*
X48889600Y7176800D01*
X49489600Y8276800D02*
X49489600Y7126800D01*
X48889600Y8226800D02*
X49489600Y8276800D01*
X48889600Y9176800D02*
X48889600Y8226800D01*
X38689600Y9176800D02*
X48889600Y9176800D01*
X16490000Y6820000D02*
X16490000Y11920000D01*
X15890000Y6895000D02*
X16490000Y6820000D01*
X15890000Y5845000D02*
X15890000Y6895000D01*
X16490000Y5920000D02*
X15890000Y5845000D01*
X16490000Y4220000D02*
X16490000Y5920000D01*
X26690000Y4220000D02*
X16490000Y4220000D01*
X26690000Y9920000D02*
X26690000Y4220000D01*
X27290000Y9870000D02*
X26690000Y9920000D01*
X27290000Y11020000D02*
X27290000Y9870000D01*
X26690000Y10970000D02*
X27290000Y11020000D01*
X26690000Y11920000D02*
X26690000Y10970000D01*
X16490000Y11920000D02*
X26690000Y11920000D01*
D18*
X39436522Y60258478D02*
G75*
G03X41275000Y55820000I1838478J-1838478D01*
G01*
X43113478Y60258478D02*
G75*
G02X41275000Y55820000I-1838478J-1838478D01*
G01*
X43075000Y60270000D02*
X39475000Y60270000D01*
D12*
X20485000Y73640000D02*
X15385000Y73640000D01*
X20410000Y73040000D02*
X20485000Y73640000D01*
X21460000Y73040000D02*
X20410000Y73040000D01*
X21385000Y73640000D02*
X21460000Y73040000D01*
X23085000Y73640000D02*
X21385000Y73640000D01*
X23085000Y83840000D02*
X23085000Y73640000D01*
X17385000Y83840000D02*
X23085000Y83840000D01*
X17435000Y84440000D02*
X17385000Y83840000D01*
X16285000Y84440000D02*
X17435000Y84440000D01*
X16335000Y83840000D02*
X16285000Y84440000D01*
X15385000Y83840000D02*
X16335000Y83840000D01*
X15385000Y73640000D02*
X15385000Y83840000D01*
D18*
X8795000Y70645000D02*
X8795000Y71270000D01*
X8795000Y68430000D02*
X8795000Y69055000D01*
X12835000Y70645000D02*
X12835000Y71270000D01*
X12835000Y68430000D02*
X12835000Y69055000D01*
X12835000Y71270000D02*
X8795000Y71270000D01*
X12835000Y68430000D02*
X8795000Y68430000D01*
X7525000Y88425000D02*
X7525000Y89050000D01*
X7525000Y86210000D02*
X7525000Y86835000D01*
X11565000Y88425000D02*
X11565000Y89050000D01*
X11565000Y86210000D02*
X11565000Y86835000D01*
X11565000Y89050000D02*
X7525000Y89050000D01*
X11565000Y86210000D02*
X7525000Y86210000D01*
X7525000Y92235000D02*
X7525000Y92860000D01*
X7525000Y90020000D02*
X7525000Y90645000D01*
X11565000Y92235000D02*
X11565000Y92860000D01*
X11565000Y90020000D02*
X11565000Y90645000D01*
X11565000Y92860000D02*
X7525000Y92860000D01*
X11565000Y90020000D02*
X7525000Y90020000D01*
X7525000Y97315000D02*
X7525000Y97940000D01*
X7525000Y95100000D02*
X7525000Y95725000D01*
X11565000Y97315000D02*
X11565000Y97940000D01*
X11565000Y95100000D02*
X11565000Y95725000D01*
X11565000Y97940000D02*
X7525000Y97940000D01*
X11565000Y95100000D02*
X7525000Y95100000D01*
D10*
X53975000Y52070000D02*
X53975000Y110490000D01*
X48895000Y52070000D02*
X48895000Y107950000D01*
X53975000Y52070000D02*
X48895000Y52070000D01*
X53975000Y110490000D02*
X51435000Y110490000D01*
X50165000Y110770000D02*
X48615000Y110770000D01*
X51435000Y110490000D02*
X51435000Y107950000D01*
X51435000Y107950000D02*
X48895000Y107950000D01*
X48615000Y110770000D02*
X48615000Y109220000D01*
X5715000Y52070000D02*
X5715000Y110490000D01*
X635000Y52070000D02*
X635000Y107950000D01*
X5715000Y52070000D02*
X635000Y52070000D01*
X5715000Y110490000D02*
X3175000Y110490000D01*
X1905000Y110770000D02*
X355000Y110770000D01*
X3175000Y110490000D02*
X3175000Y107950000D01*
X3175000Y107950000D02*
X635000Y107950000D01*
X355000Y110770000D02*
X355000Y109220000D01*
X3136200Y19354800D02*
G75*
G03X3136200Y19354800I-975000J0D01*
G01*
X25636200Y19354800D02*
G75*
G03X25636200Y19354800I-975000J0D01*
G01*
X53271400Y15849600D02*
G75*
G03X53271400Y15849600I-975000J0D01*
G01*
X30771400Y15849600D02*
G75*
G03X30771400Y15849600I-975000J0D01*
G01*
X38885000Y31750000D02*
G75*
G03X38885000Y31750000I-825000J0D01*
G01*
X33785000Y31750000D02*
G75*
G03X33785000Y31750000I-825000J0D01*
G01*
X21085000Y31750000D02*
G75*
G03X21085000Y31750000I-825000J0D01*
G01*
X10985000Y31750000D02*
G75*
G03X10985000Y31750000I-825000J0D01*
G01*
X49376400Y110008600D02*
X49376400Y108431400D01*
X50953600Y108431400D01*
X50953600Y110008600D01*
X49376400Y110008600D01*
X51916400Y109220000D02*
X51916400Y109220000D01*
X53493600Y109220000D02*
X53493600Y109220000D01*
X51916400Y109220000D02*
G75*
G03X53493600Y109220000I788600J0D01*
G01*
X53493600Y109220000D02*
G75*
G03X51916400Y109220000I-788600J0D01*
G01*
X49376400Y106680000D02*
X49376400Y106680000D01*
X50953600Y106680000D02*
X50953600Y106680000D01*
X49376400Y106680000D02*
G75*
G03X50953600Y106680000I788600J0D01*
G01*
X50953600Y106680000D02*
G75*
G03X49376400Y106680000I-788600J0D01*
G01*
X51916400Y106680000D02*
X51916400Y106680000D01*
X53493600Y106680000D02*
X53493600Y106680000D01*
X51916400Y106680000D02*
G75*
G03X53493600Y106680000I788600J0D01*
G01*
X53493600Y106680000D02*
G75*
G03X51916400Y106680000I-788600J0D01*
G01*
X49376400Y104140000D02*
X49376400Y104140000D01*
X50953600Y104140000D02*
X50953600Y104140000D01*
X49376400Y104140000D02*
G75*
G03X50953600Y104140000I788600J0D01*
G01*
X50953600Y104140000D02*
G75*
G03X49376400Y104140000I-788600J0D01*
G01*
X51916400Y104140000D02*
X51916400Y104140000D01*
X53493600Y104140000D02*
X53493600Y104140000D01*
X51916400Y104140000D02*
G75*
G03X53493600Y104140000I788600J0D01*
G01*
X53493600Y104140000D02*
G75*
G03X51916400Y104140000I-788600J0D01*
G01*
X49376400Y101600000D02*
X49376400Y101600000D01*
X50953600Y101600000D02*
X50953600Y101600000D01*
X49376400Y101600000D02*
G75*
G03X50953600Y101600000I788600J0D01*
G01*
X50953600Y101600000D02*
G75*
G03X49376400Y101600000I-788600J0D01*
G01*
X51916400Y101600000D02*
X51916400Y101600000D01*
X53493600Y101600000D02*
X53493600Y101600000D01*
X51916400Y101600000D02*
G75*
G03X53493600Y101600000I788600J0D01*
G01*
X53493600Y101600000D02*
G75*
G03X51916400Y101600000I-788600J0D01*
G01*
X49376400Y99060000D02*
X49376400Y99060000D01*
X50953600Y99060000D02*
X50953600Y99060000D01*
X49376400Y99060000D02*
G75*
G03X50953600Y99060000I788600J0D01*
G01*
X50953600Y99060000D02*
G75*
G03X49376400Y99060000I-788600J0D01*
G01*
X51916400Y99060000D02*
X51916400Y99060000D01*
X53493600Y99060000D02*
X53493600Y99060000D01*
X51916400Y99060000D02*
G75*
G03X53493600Y99060000I788600J0D01*
G01*
X53493600Y99060000D02*
G75*
G03X51916400Y99060000I-788600J0D01*
G01*
X49376400Y96520000D02*
X49376400Y96520000D01*
X50953600Y96520000D02*
X50953600Y96520000D01*
X49376400Y96520000D02*
G75*
G03X50953600Y96520000I788600J0D01*
G01*
X50953600Y96520000D02*
G75*
G03X49376400Y96520000I-788600J0D01*
G01*
X51916400Y96520000D02*
X51916400Y96520000D01*
X53493600Y96520000D02*
X53493600Y96520000D01*
X51916400Y96520000D02*
G75*
G03X53493600Y96520000I788600J0D01*
G01*
X53493600Y96520000D02*
G75*
G03X51916400Y96520000I-788600J0D01*
G01*
X49376400Y93980000D02*
X49376400Y93980000D01*
X50953600Y93980000D02*
X50953600Y93980000D01*
X49376400Y93980000D02*
G75*
G03X50953600Y93980000I788600J0D01*
G01*
X50953600Y93980000D02*
G75*
G03X49376400Y93980000I-788600J0D01*
G01*
X51916400Y93980000D02*
X51916400Y93980000D01*
X53493600Y93980000D02*
X53493600Y93980000D01*
X51916400Y93980000D02*
G75*
G03X53493600Y93980000I788600J0D01*
G01*
X53493600Y93980000D02*
G75*
G03X51916400Y93980000I-788600J0D01*
G01*
X49376400Y91440000D02*
X49376400Y91440000D01*
X50953600Y91440000D02*
X50953600Y91440000D01*
X49376400Y91440000D02*
G75*
G03X50953600Y91440000I788600J0D01*
G01*
X50953600Y91440000D02*
G75*
G03X49376400Y91440000I-788600J0D01*
G01*
X51916400Y91440000D02*
X51916400Y91440000D01*
X53493600Y91440000D02*
X53493600Y91440000D01*
X51916400Y91440000D02*
G75*
G03X53493600Y91440000I788600J0D01*
G01*
X53493600Y91440000D02*
G75*
G03X51916400Y91440000I-788600J0D01*
G01*
X49376400Y88900000D02*
X49376400Y88900000D01*
X50953600Y88900000D02*
X50953600Y88900000D01*
X49376400Y88900000D02*
G75*
G03X50953600Y88900000I788600J0D01*
G01*
X50953600Y88900000D02*
G75*
G03X49376400Y88900000I-788600J0D01*
G01*
X51916400Y88900000D02*
X51916400Y88900000D01*
X53493600Y88900000D02*
X53493600Y88900000D01*
X51916400Y88900000D02*
G75*
G03X53493600Y88900000I788600J0D01*
G01*
X53493600Y88900000D02*
G75*
G03X51916400Y88900000I-788600J0D01*
G01*
X49376400Y86360000D02*
X49376400Y86360000D01*
X50953600Y86360000D02*
X50953600Y86360000D01*
X49376400Y86360000D02*
G75*
G03X50953600Y86360000I788600J0D01*
G01*
X50953600Y86360000D02*
G75*
G03X49376400Y86360000I-788600J0D01*
G01*
X51916400Y86360000D02*
X51916400Y86360000D01*
X53493600Y86360000D02*
X53493600Y86360000D01*
X51916400Y86360000D02*
G75*
G03X53493600Y86360000I788600J0D01*
G01*
X53493600Y86360000D02*
G75*
G03X51916400Y86360000I-788600J0D01*
G01*
X49376400Y83820000D02*
X49376400Y83820000D01*
X50953600Y83820000D02*
X50953600Y83820000D01*
X49376400Y83820000D02*
G75*
G03X50953600Y83820000I788600J0D01*
G01*
X50953600Y83820000D02*
G75*
G03X49376400Y83820000I-788600J0D01*
G01*
X51916400Y83820000D02*
X51916400Y83820000D01*
X53493600Y83820000D02*
X53493600Y83820000D01*
X51916400Y83820000D02*
G75*
G03X53493600Y83820000I788600J0D01*
G01*
X53493600Y83820000D02*
G75*
G03X51916400Y83820000I-788600J0D01*
G01*
X49376400Y81280000D02*
X49376400Y81280000D01*
X50953600Y81280000D02*
X50953600Y81280000D01*
X49376400Y81280000D02*
G75*
G03X50953600Y81280000I788600J0D01*
G01*
X50953600Y81280000D02*
G75*
G03X49376400Y81280000I-788600J0D01*
G01*
X51916400Y81280000D02*
X51916400Y81280000D01*
X53493600Y81280000D02*
X53493600Y81280000D01*
X51916400Y81280000D02*
G75*
G03X53493600Y81280000I788600J0D01*
G01*
X53493600Y81280000D02*
G75*
G03X51916400Y81280000I-788600J0D01*
G01*
X49376400Y78740000D02*
X49376400Y78740000D01*
X50953600Y78740000D02*
X50953600Y78740000D01*
X49376400Y78740000D02*
G75*
G03X50953600Y78740000I788600J0D01*
G01*
X50953600Y78740000D02*
G75*
G03X49376400Y78740000I-788600J0D01*
G01*
X51916400Y78740000D02*
X51916400Y78740000D01*
X53493600Y78740000D02*
X53493600Y78740000D01*
X51916400Y78740000D02*
G75*
G03X53493600Y78740000I788600J0D01*
G01*
X53493600Y78740000D02*
G75*
G03X51916400Y78740000I-788600J0D01*
G01*
X49376400Y76200000D02*
X49376400Y76200000D01*
X50953600Y76200000D02*
X50953600Y76200000D01*
X49376400Y76200000D02*
G75*
G03X50953600Y76200000I788600J0D01*
G01*
X50953600Y76200000D02*
G75*
G03X49376400Y76200000I-788600J0D01*
G01*
X51916400Y76200000D02*
X51916400Y76200000D01*
X53493600Y76200000D02*
X53493600Y76200000D01*
X51916400Y76200000D02*
G75*
G03X53493600Y76200000I788600J0D01*
G01*
X53493600Y76200000D02*
G75*
G03X51916400Y76200000I-788600J0D01*
G01*
X49376400Y73660000D02*
X49376400Y73660000D01*
X50953600Y73660000D02*
X50953600Y73660000D01*
X49376400Y73660000D02*
G75*
G03X50953600Y73660000I788600J0D01*
G01*
X50953600Y73660000D02*
G75*
G03X49376400Y73660000I-788600J0D01*
G01*
X51916400Y73660000D02*
X51916400Y73660000D01*
X53493600Y73660000D02*
X53493600Y73660000D01*
X51916400Y73660000D02*
G75*
G03X53493600Y73660000I788600J0D01*
G01*
X53493600Y73660000D02*
G75*
G03X51916400Y73660000I-788600J0D01*
G01*
X49376400Y71120000D02*
X49376400Y71120000D01*
X50953600Y71120000D02*
X50953600Y71120000D01*
X49376400Y71120000D02*
G75*
G03X50953600Y71120000I788600J0D01*
G01*
X50953600Y71120000D02*
G75*
G03X49376400Y71120000I-788600J0D01*
G01*
X51916400Y71120000D02*
X51916400Y71120000D01*
X53493600Y71120000D02*
X53493600Y71120000D01*
X51916400Y71120000D02*
G75*
G03X53493600Y71120000I788600J0D01*
G01*
X53493600Y71120000D02*
G75*
G03X51916400Y71120000I-788600J0D01*
G01*
X49376400Y68580000D02*
X49376400Y68580000D01*
X50953600Y68580000D02*
X50953600Y68580000D01*
X49376400Y68580000D02*
G75*
G03X50953600Y68580000I788600J0D01*
G01*
X50953600Y68580000D02*
G75*
G03X49376400Y68580000I-788600J0D01*
G01*
X51916400Y68580000D02*
X51916400Y68580000D01*
X53493600Y68580000D02*
X53493600Y68580000D01*
X51916400Y68580000D02*
G75*
G03X53493600Y68580000I788600J0D01*
G01*
X53493600Y68580000D02*
G75*
G03X51916400Y68580000I-788600J0D01*
G01*
X49376400Y66040000D02*
X49376400Y66040000D01*
X50953600Y66040000D02*
X50953600Y66040000D01*
X49376400Y66040000D02*
G75*
G03X50953600Y66040000I788600J0D01*
G01*
X50953600Y66040000D02*
G75*
G03X49376400Y66040000I-788600J0D01*
G01*
X51916400Y66040000D02*
X51916400Y66040000D01*
X53493600Y66040000D02*
X53493600Y66040000D01*
X51916400Y66040000D02*
G75*
G03X53493600Y66040000I788600J0D01*
G01*
X53493600Y66040000D02*
G75*
G03X51916400Y66040000I-788600J0D01*
G01*
X49376400Y63500000D02*
X49376400Y63500000D01*
X50953600Y63500000D02*
X50953600Y63500000D01*
X49376400Y63500000D02*
G75*
G03X50953600Y63500000I788600J0D01*
G01*
X50953600Y63500000D02*
G75*
G03X49376400Y63500000I-788600J0D01*
G01*
X51916400Y63500000D02*
X51916400Y63500000D01*
X53493600Y63500000D02*
X53493600Y63500000D01*
X51916400Y63500000D02*
G75*
G03X53493600Y63500000I788600J0D01*
G01*
X53493600Y63500000D02*
G75*
G03X51916400Y63500000I-788600J0D01*
G01*
X49376400Y60960000D02*
X49376400Y60960000D01*
X50953600Y60960000D02*
X50953600Y60960000D01*
X49376400Y60960000D02*
G75*
G03X50953600Y60960000I788600J0D01*
G01*
X50953600Y60960000D02*
G75*
G03X49376400Y60960000I-788600J0D01*
G01*
X51916400Y60960000D02*
X51916400Y60960000D01*
X53493600Y60960000D02*
X53493600Y60960000D01*
X51916400Y60960000D02*
G75*
G03X53493600Y60960000I788600J0D01*
G01*
X53493600Y60960000D02*
G75*
G03X51916400Y60960000I-788600J0D01*
G01*
X49376400Y58420000D02*
X49376400Y58420000D01*
X50953600Y58420000D02*
X50953600Y58420000D01*
X49376400Y58420000D02*
G75*
G03X50953600Y58420000I788600J0D01*
G01*
X50953600Y58420000D02*
G75*
G03X49376400Y58420000I-788600J0D01*
G01*
X51916400Y58420000D02*
X51916400Y58420000D01*
X53493600Y58420000D02*
X53493600Y58420000D01*
X51916400Y58420000D02*
G75*
G03X53493600Y58420000I788600J0D01*
G01*
X53493600Y58420000D02*
G75*
G03X51916400Y58420000I-788600J0D01*
G01*
X49376400Y55880000D02*
X49376400Y55880000D01*
X50953600Y55880000D02*
X50953600Y55880000D01*
X49376400Y55880000D02*
G75*
G03X50953600Y55880000I788600J0D01*
G01*
X50953600Y55880000D02*
G75*
G03X49376400Y55880000I-788600J0D01*
G01*
X51916400Y55880000D02*
X51916400Y55880000D01*
X53493600Y55880000D02*
X53493600Y55880000D01*
X51916400Y55880000D02*
G75*
G03X53493600Y55880000I788600J0D01*
G01*
X53493600Y55880000D02*
G75*
G03X51916400Y55880000I-788600J0D01*
G01*
X49376400Y53340000D02*
X49376400Y53340000D01*
X50953600Y53340000D02*
X50953600Y53340000D01*
X49376400Y53340000D02*
G75*
G03X50953600Y53340000I788600J0D01*
G01*
X50953600Y53340000D02*
G75*
G03X49376400Y53340000I-788600J0D01*
G01*
X51916400Y53340000D02*
X51916400Y53340000D01*
X53493600Y53340000D02*
X53493600Y53340000D01*
X51916400Y53340000D02*
G75*
G03X53493600Y53340000I788600J0D01*
G01*
X53493600Y53340000D02*
G75*
G03X51916400Y53340000I-788600J0D01*
G01*
X1116400Y110008600D02*
X1116400Y108431400D01*
X2693600Y108431400D01*
X2693600Y110008600D01*
X1116400Y110008600D01*
X3656400Y109220000D02*
X3656400Y109220000D01*
X5233600Y109220000D02*
X5233600Y109220000D01*
X3656400Y109220000D02*
G75*
G03X5233600Y109220000I788600J0D01*
G01*
X5233600Y109220000D02*
G75*
G03X3656400Y109220000I-788600J0D01*
G01*
X1116400Y106680000D02*
X1116400Y106680000D01*
X2693600Y106680000D02*
X2693600Y106680000D01*
X1116400Y106680000D02*
G75*
G03X2693600Y106680000I788600J0D01*
G01*
X2693600Y106680000D02*
G75*
G03X1116400Y106680000I-788600J0D01*
G01*
X3656400Y106680000D02*
X3656400Y106680000D01*
X5233600Y106680000D02*
X5233600Y106680000D01*
X3656400Y106680000D02*
G75*
G03X5233600Y106680000I788600J0D01*
G01*
X5233600Y106680000D02*
G75*
G03X3656400Y106680000I-788600J0D01*
G01*
X1116400Y104140000D02*
X1116400Y104140000D01*
X2693600Y104140000D02*
X2693600Y104140000D01*
X1116400Y104140000D02*
G75*
G03X2693600Y104140000I788600J0D01*
G01*
X2693600Y104140000D02*
G75*
G03X1116400Y104140000I-788600J0D01*
G01*
X3656400Y104140000D02*
X3656400Y104140000D01*
X5233600Y104140000D02*
X5233600Y104140000D01*
X3656400Y104140000D02*
G75*
G03X5233600Y104140000I788600J0D01*
G01*
X5233600Y104140000D02*
G75*
G03X3656400Y104140000I-788600J0D01*
G01*
X1116400Y101600000D02*
X1116400Y101600000D01*
X2693600Y101600000D02*
X2693600Y101600000D01*
X1116400Y101600000D02*
G75*
G03X2693600Y101600000I788600J0D01*
G01*
X2693600Y101600000D02*
G75*
G03X1116400Y101600000I-788600J0D01*
G01*
X3656400Y101600000D02*
X3656400Y101600000D01*
X5233600Y101600000D02*
X5233600Y101600000D01*
X3656400Y101600000D02*
G75*
G03X5233600Y101600000I788600J0D01*
G01*
X5233600Y101600000D02*
G75*
G03X3656400Y101600000I-788600J0D01*
G01*
X1116400Y99060000D02*
X1116400Y99060000D01*
X2693600Y99060000D02*
X2693600Y99060000D01*
X1116400Y99060000D02*
G75*
G03X2693600Y99060000I788600J0D01*
G01*
X2693600Y99060000D02*
G75*
G03X1116400Y99060000I-788600J0D01*
G01*
X3656400Y99060000D02*
X3656400Y99060000D01*
X5233600Y99060000D02*
X5233600Y99060000D01*
X3656400Y99060000D02*
G75*
G03X5233600Y99060000I788600J0D01*
G01*
X5233600Y99060000D02*
G75*
G03X3656400Y99060000I-788600J0D01*
G01*
X1116400Y96520000D02*
X1116400Y96520000D01*
X2693600Y96520000D02*
X2693600Y96520000D01*
X1116400Y96520000D02*
G75*
G03X2693600Y96520000I788600J0D01*
G01*
X2693600Y96520000D02*
G75*
G03X1116400Y96520000I-788600J0D01*
G01*
X3656400Y96520000D02*
X3656400Y96520000D01*
X5233600Y96520000D02*
X5233600Y96520000D01*
X3656400Y96520000D02*
G75*
G03X5233600Y96520000I788600J0D01*
G01*
X5233600Y96520000D02*
G75*
G03X3656400Y96520000I-788600J0D01*
G01*
X1116400Y93980000D02*
X1116400Y93980000D01*
X2693600Y93980000D02*
X2693600Y93980000D01*
X1116400Y93980000D02*
G75*
G03X2693600Y93980000I788600J0D01*
G01*
X2693600Y93980000D02*
G75*
G03X1116400Y93980000I-788600J0D01*
G01*
X3656400Y93980000D02*
X3656400Y93980000D01*
X5233600Y93980000D02*
X5233600Y93980000D01*
X3656400Y93980000D02*
G75*
G03X5233600Y93980000I788600J0D01*
G01*
X5233600Y93980000D02*
G75*
G03X3656400Y93980000I-788600J0D01*
G01*
X1116400Y91440000D02*
X1116400Y91440000D01*
X2693600Y91440000D02*
X2693600Y91440000D01*
X1116400Y91440000D02*
G75*
G03X2693600Y91440000I788600J0D01*
G01*
X2693600Y91440000D02*
G75*
G03X1116400Y91440000I-788600J0D01*
G01*
X3656400Y91440000D02*
X3656400Y91440000D01*
X5233600Y91440000D02*
X5233600Y91440000D01*
X3656400Y91440000D02*
G75*
G03X5233600Y91440000I788600J0D01*
G01*
X5233600Y91440000D02*
G75*
G03X3656400Y91440000I-788600J0D01*
G01*
X1116400Y88900000D02*
X1116400Y88900000D01*
X2693600Y88900000D02*
X2693600Y88900000D01*
X1116400Y88900000D02*
G75*
G03X2693600Y88900000I788600J0D01*
G01*
X2693600Y88900000D02*
G75*
G03X1116400Y88900000I-788600J0D01*
G01*
X3656400Y88900000D02*
X3656400Y88900000D01*
X5233600Y88900000D02*
X5233600Y88900000D01*
X3656400Y88900000D02*
G75*
G03X5233600Y88900000I788600J0D01*
G01*
X5233600Y88900000D02*
G75*
G03X3656400Y88900000I-788600J0D01*
G01*
X1116400Y86360000D02*
X1116400Y86360000D01*
X2693600Y86360000D02*
X2693600Y86360000D01*
X1116400Y86360000D02*
G75*
G03X2693600Y86360000I788600J0D01*
G01*
X2693600Y86360000D02*
G75*
G03X1116400Y86360000I-788600J0D01*
G01*
X3656400Y86360000D02*
X3656400Y86360000D01*
X5233600Y86360000D02*
X5233600Y86360000D01*
X3656400Y86360000D02*
G75*
G03X5233600Y86360000I788600J0D01*
G01*
X5233600Y86360000D02*
G75*
G03X3656400Y86360000I-788600J0D01*
G01*
X1116400Y83820000D02*
X1116400Y83820000D01*
X2693600Y83820000D02*
X2693600Y83820000D01*
X1116400Y83820000D02*
G75*
G03X2693600Y83820000I788600J0D01*
G01*
X2693600Y83820000D02*
G75*
G03X1116400Y83820000I-788600J0D01*
G01*
X3656400Y83820000D02*
X3656400Y83820000D01*
X5233600Y83820000D02*
X5233600Y83820000D01*
X3656400Y83820000D02*
G75*
G03X5233600Y83820000I788600J0D01*
G01*
X5233600Y83820000D02*
G75*
G03X3656400Y83820000I-788600J0D01*
G01*
X1116400Y81280000D02*
X1116400Y81280000D01*
X2693600Y81280000D02*
X2693600Y81280000D01*
X1116400Y81280000D02*
G75*
G03X2693600Y81280000I788600J0D01*
G01*
X2693600Y81280000D02*
G75*
G03X1116400Y81280000I-788600J0D01*
G01*
X3656400Y81280000D02*
X3656400Y81280000D01*
X5233600Y81280000D02*
X5233600Y81280000D01*
X3656400Y81280000D02*
G75*
G03X5233600Y81280000I788600J0D01*
G01*
X5233600Y81280000D02*
G75*
G03X3656400Y81280000I-788600J0D01*
G01*
X1116400Y78740000D02*
X1116400Y78740000D01*
X2693600Y78740000D02*
X2693600Y78740000D01*
X1116400Y78740000D02*
G75*
G03X2693600Y78740000I788600J0D01*
G01*
X2693600Y78740000D02*
G75*
G03X1116400Y78740000I-788600J0D01*
G01*
X3656400Y78740000D02*
X3656400Y78740000D01*
X5233600Y78740000D02*
X5233600Y78740000D01*
X3656400Y78740000D02*
G75*
G03X5233600Y78740000I788600J0D01*
G01*
X5233600Y78740000D02*
G75*
G03X3656400Y78740000I-788600J0D01*
G01*
X1116400Y76200000D02*
X1116400Y76200000D01*
X2693600Y76200000D02*
X2693600Y76200000D01*
X1116400Y76200000D02*
G75*
G03X2693600Y76200000I788600J0D01*
G01*
X2693600Y76200000D02*
G75*
G03X1116400Y76200000I-788600J0D01*
G01*
X3656400Y76200000D02*
X3656400Y76200000D01*
X5233600Y76200000D02*
X5233600Y76200000D01*
X3656400Y76200000D02*
G75*
G03X5233600Y76200000I788600J0D01*
G01*
X5233600Y76200000D02*
G75*
G03X3656400Y76200000I-788600J0D01*
G01*
X1116400Y73660000D02*
X1116400Y73660000D01*
X2693600Y73660000D02*
X2693600Y73660000D01*
X1116400Y73660000D02*
G75*
G03X2693600Y73660000I788600J0D01*
G01*
X2693600Y73660000D02*
G75*
G03X1116400Y73660000I-788600J0D01*
G01*
X3656400Y73660000D02*
X3656400Y73660000D01*
X5233600Y73660000D02*
X5233600Y73660000D01*
X3656400Y73660000D02*
G75*
G03X5233600Y73660000I788600J0D01*
G01*
X5233600Y73660000D02*
G75*
G03X3656400Y73660000I-788600J0D01*
G01*
X1116400Y71120000D02*
X1116400Y71120000D01*
X2693600Y71120000D02*
X2693600Y71120000D01*
X1116400Y71120000D02*
G75*
G03X2693600Y71120000I788600J0D01*
G01*
X2693600Y71120000D02*
G75*
G03X1116400Y71120000I-788600J0D01*
G01*
X3656400Y71120000D02*
X3656400Y71120000D01*
X5233600Y71120000D02*
X5233600Y71120000D01*
X3656400Y71120000D02*
G75*
G03X5233600Y71120000I788600J0D01*
G01*
X5233600Y71120000D02*
G75*
G03X3656400Y71120000I-788600J0D01*
G01*
X1116400Y68580000D02*
X1116400Y68580000D01*
X2693600Y68580000D02*
X2693600Y68580000D01*
X1116400Y68580000D02*
G75*
G03X2693600Y68580000I788600J0D01*
G01*
X2693600Y68580000D02*
G75*
G03X1116400Y68580000I-788600J0D01*
G01*
X3656400Y68580000D02*
X3656400Y68580000D01*
X5233600Y68580000D02*
X5233600Y68580000D01*
X3656400Y68580000D02*
G75*
G03X5233600Y68580000I788600J0D01*
G01*
X5233600Y68580000D02*
G75*
G03X3656400Y68580000I-788600J0D01*
G01*
X1116400Y66040000D02*
X1116400Y66040000D01*
X2693600Y66040000D02*
X2693600Y66040000D01*
X1116400Y66040000D02*
G75*
G03X2693600Y66040000I788600J0D01*
G01*
X2693600Y66040000D02*
G75*
G03X1116400Y66040000I-788600J0D01*
G01*
X3656400Y66040000D02*
X3656400Y66040000D01*
X5233600Y66040000D02*
X5233600Y66040000D01*
X3656400Y66040000D02*
G75*
G03X5233600Y66040000I788600J0D01*
G01*
X5233600Y66040000D02*
G75*
G03X3656400Y66040000I-788600J0D01*
G01*
X1116400Y63500000D02*
X1116400Y63500000D01*
X2693600Y63500000D02*
X2693600Y63500000D01*
X1116400Y63500000D02*
G75*
G03X2693600Y63500000I788600J0D01*
G01*
X2693600Y63500000D02*
G75*
G03X1116400Y63500000I-788600J0D01*
G01*
X3656400Y63500000D02*
X3656400Y63500000D01*
X5233600Y63500000D02*
X5233600Y63500000D01*
X3656400Y63500000D02*
G75*
G03X5233600Y63500000I788600J0D01*
G01*
X5233600Y63500000D02*
G75*
G03X3656400Y63500000I-788600J0D01*
G01*
X1116400Y60960000D02*
X1116400Y60960000D01*
X2693600Y60960000D02*
X2693600Y60960000D01*
X1116400Y60960000D02*
G75*
G03X2693600Y60960000I788600J0D01*
G01*
X2693600Y60960000D02*
G75*
G03X1116400Y60960000I-788600J0D01*
G01*
X3656400Y60960000D02*
X3656400Y60960000D01*
X5233600Y60960000D02*
X5233600Y60960000D01*
X3656400Y60960000D02*
G75*
G03X5233600Y60960000I788600J0D01*
G01*
X5233600Y60960000D02*
G75*
G03X3656400Y60960000I-788600J0D01*
G01*
X1116400Y58420000D02*
X1116400Y58420000D01*
X2693600Y58420000D02*
X2693600Y58420000D01*
X1116400Y58420000D02*
G75*
G03X2693600Y58420000I788600J0D01*
G01*
X2693600Y58420000D02*
G75*
G03X1116400Y58420000I-788600J0D01*
G01*
X3656400Y58420000D02*
X3656400Y58420000D01*
X5233600Y58420000D02*
X5233600Y58420000D01*
X3656400Y58420000D02*
G75*
G03X5233600Y58420000I788600J0D01*
G01*
X5233600Y58420000D02*
G75*
G03X3656400Y58420000I-788600J0D01*
G01*
X1116400Y55880000D02*
X1116400Y55880000D01*
X2693600Y55880000D02*
X2693600Y55880000D01*
X1116400Y55880000D02*
G75*
G03X2693600Y55880000I788600J0D01*
G01*
X2693600Y55880000D02*
G75*
G03X1116400Y55880000I-788600J0D01*
G01*
X3656400Y55880000D02*
X3656400Y55880000D01*
X5233600Y55880000D02*
X5233600Y55880000D01*
X3656400Y55880000D02*
G75*
G03X5233600Y55880000I788600J0D01*
G01*
X5233600Y55880000D02*
G75*
G03X3656400Y55880000I-788600J0D01*
G01*
X1116400Y53340000D02*
X1116400Y53340000D01*
X2693600Y53340000D02*
X2693600Y53340000D01*
X1116400Y53340000D02*
G75*
G03X2693600Y53340000I788600J0D01*
G01*
X2693600Y53340000D02*
G75*
G03X1116400Y53340000I-788600J0D01*
G01*
X3656400Y53340000D02*
X3656400Y53340000D01*
X5233600Y53340000D02*
X5233600Y53340000D01*
X3656400Y53340000D02*
G75*
G03X5233600Y53340000I788600J0D01*
G01*
X5233600Y53340000D02*
G75*
G03X3656400Y53340000I-788600J0D01*
G01*
D20*
X12934576Y18886227D02*
X12934576Y17979084D01*
X12874100Y17797655D01*
X12753148Y17676703D01*
X12571719Y17616227D01*
X12450767Y17616227D01*
X13720767Y18341941D02*
X13599814Y18402417D01*
X13539338Y18462893D01*
X13478862Y18583846D01*
X13478862Y18644322D01*
X13539338Y18765274D01*
X13599814Y18825750D01*
X13720767Y18886227D01*
X13962671Y18886227D01*
X14083624Y18825750D01*
X14144100Y18765274D01*
X14204576Y18644322D01*
X14204576Y18583846D01*
X14144100Y18462893D01*
X14083624Y18402417D01*
X13962671Y18341941D01*
X13720767Y18341941D01*
X13599814Y18281465D01*
X13539338Y18220989D01*
X13478862Y18100036D01*
X13478862Y17858131D01*
X13539338Y17737179D01*
X13599814Y17676703D01*
X13720767Y17616227D01*
X13962671Y17616227D01*
X14083624Y17676703D01*
X14144100Y17737179D01*
X14204576Y17858131D01*
X14204576Y18100036D01*
X14144100Y18220989D01*
X14083624Y18281465D01*
X13962671Y18341941D01*
X40676356Y17709127D02*
X40676356Y16801984D01*
X40615880Y16620555D01*
X40494928Y16499603D01*
X40313499Y16439127D01*
X40192547Y16439127D01*
X41160166Y17709127D02*
X42006832Y17709127D01*
X41462547Y16439127D01*
D21*
X10739361Y77489353D02*
X10739361Y77160362D01*
X10758714Y77121658D01*
X10778066Y77102305D01*
X10816771Y77082953D01*
X10894180Y77082953D01*
X10932885Y77102305D01*
X10952238Y77121658D01*
X10971590Y77160362D01*
X10971590Y77489353D01*
X11377990Y77082953D02*
X11145761Y77082953D01*
X11261876Y77082953D02*
X11261876Y77489353D01*
X11223171Y77431296D01*
X11184466Y77392591D01*
X11145761Y77373239D01*
X10447842Y76693753D02*
X10447842Y77100153D01*
X10583309Y76809867D01*
X10718776Y77100153D01*
X10718776Y76693753D01*
X10892947Y76809867D02*
X11086471Y76809867D01*
X10854242Y76693753D02*
X10989709Y77100153D01*
X11125176Y76693753D01*
X11221938Y77100153D02*
X11492871Y76693753D01*
X11492871Y77100153D02*
X11221938Y76693753D01*
X11821861Y77100153D02*
X11744452Y77100153D01*
X11705747Y77080800D01*
X11686395Y77061448D01*
X11647690Y77003391D01*
X11628338Y76925981D01*
X11628338Y76771162D01*
X11647690Y76732458D01*
X11667042Y76713105D01*
X11705747Y76693753D01*
X11783157Y76693753D01*
X11821861Y76713105D01*
X11841214Y76732458D01*
X11860566Y76771162D01*
X11860566Y76867924D01*
X11841214Y76906629D01*
X11821861Y76925981D01*
X11783157Y76945334D01*
X11705747Y76945334D01*
X11667042Y76925981D01*
X11647690Y76906629D01*
X11628338Y76867924D01*
X12208909Y77100153D02*
X12131500Y77100153D01*
X12092795Y77080800D01*
X12073442Y77061448D01*
X12034738Y77003391D01*
X12015385Y76925981D01*
X12015385Y76771162D01*
X12034738Y76732458D01*
X12054090Y76713105D01*
X12092795Y76693753D01*
X12170204Y76693753D01*
X12208909Y76713105D01*
X12228261Y76732458D01*
X12247614Y76771162D01*
X12247614Y76867924D01*
X12228261Y76906629D01*
X12208909Y76925981D01*
X12170204Y76945334D01*
X12092795Y76945334D01*
X12054090Y76925981D01*
X12034738Y76906629D01*
X12015385Y76867924D01*
X12383080Y77100153D02*
X12654014Y77100153D01*
X12479842Y76693753D01*
X13002357Y77100153D02*
X12808833Y77100153D01*
X12789480Y76906629D01*
X12808833Y76925981D01*
X12847538Y76945334D01*
X12944300Y76945334D01*
X12983004Y76925981D01*
X13002357Y76906629D01*
X13021709Y76867924D01*
X13021709Y76771162D01*
X13002357Y76732458D01*
X12983004Y76713105D01*
X12944300Y76693753D01*
X12847538Y76693753D01*
X12808833Y76713105D01*
X12789480Y76732458D01*
D22*
X23521462Y99638290D02*
X24236985Y99638290D01*
X24380089Y99590588D01*
X24475492Y99495185D01*
X24523194Y99352081D01*
X24523194Y99256678D01*
X23616865Y100067604D02*
X23569164Y100115305D01*
X23521462Y100210708D01*
X23521462Y100449216D01*
X23569164Y100544619D01*
X23616865Y100592320D01*
X23712268Y100640022D01*
X23807671Y100640022D01*
X23950776Y100592320D01*
X24523194Y100019902D01*
X24523194Y100640022D01*
D10*
X29741904Y60887620D02*
X29741904Y61887620D01*
X29980000Y61887620D01*
X30122857Y61840000D01*
X30218095Y61744762D01*
X30265714Y61649524D01*
X30313333Y61459048D01*
X30313333Y61316191D01*
X30265714Y61125715D01*
X30218095Y61030477D01*
X30122857Y60935239D01*
X29980000Y60887620D01*
X29741904Y60887620D01*
X30694285Y61792381D02*
X30741904Y61840000D01*
X30837142Y61887620D01*
X31075238Y61887620D01*
X31170476Y61840000D01*
X31218095Y61792381D01*
X31265714Y61697143D01*
X31265714Y61601905D01*
X31218095Y61459048D01*
X30646666Y60887620D01*
X31265714Y60887620D01*
X25138095Y60167620D02*
X25138095Y61167620D01*
X25709523Y60167620D02*
X25280952Y60739048D01*
X25709523Y61167620D02*
X25138095Y60596191D01*
X54212380Y36091905D02*
X53212380Y36091905D01*
X53212380Y36330000D01*
X53260000Y36472858D01*
X53355238Y36568096D01*
X53450476Y36615715D01*
X53640952Y36663334D01*
X53783809Y36663334D01*
X53974285Y36615715D01*
X54069523Y36568096D01*
X54164761Y36472858D01*
X54212380Y36330000D01*
X54212380Y36091905D01*
X54212380Y37615715D02*
X54212380Y37044286D01*
X54212380Y37330000D02*
X53212380Y37330000D01*
X53355238Y37234762D01*
X53450476Y37139524D01*
X53498095Y37044286D01*
X12697380Y64935834D02*
X12221190Y64602500D01*
X12697380Y64364405D02*
X11697380Y64364405D01*
X11697380Y64745358D01*
X11745000Y64840596D01*
X11792619Y64888215D01*
X11887857Y64935834D01*
X12030714Y64935834D01*
X12125952Y64888215D01*
X12173571Y64840596D01*
X12221190Y64745358D01*
X12221190Y64364405D01*
X11697380Y65269167D02*
X11697380Y65888215D01*
X12078333Y65554881D01*
X12078333Y65697739D01*
X12125952Y65792977D01*
X12173571Y65840596D01*
X12268809Y65888215D01*
X12506904Y65888215D01*
X12602142Y65840596D01*
X12649761Y65792977D01*
X12697380Y65697739D01*
X12697380Y65412024D01*
X12649761Y65316786D01*
X12602142Y65269167D01*
X53972380Y30313334D02*
X53496190Y29980000D01*
X53972380Y29741905D02*
X52972380Y29741905D01*
X52972380Y30122858D01*
X53020000Y30218096D01*
X53067619Y30265715D01*
X53162857Y30313334D01*
X53305714Y30313334D01*
X53400952Y30265715D01*
X53448571Y30218096D01*
X53496190Y30122858D01*
X53496190Y29741905D01*
X53067619Y30694286D02*
X53020000Y30741905D01*
X52972380Y30837143D01*
X52972380Y31075239D01*
X53020000Y31170477D01*
X53067619Y31218096D01*
X53162857Y31265715D01*
X53258095Y31265715D01*
X53400952Y31218096D01*
X53972380Y30646667D01*
X53972380Y31265715D01*
X44981833Y66085120D02*
X44648500Y66561310D01*
X44410404Y66085120D02*
X44410404Y67085120D01*
X44791357Y67085120D01*
X44886595Y67037500D01*
X44934214Y66989881D01*
X44981833Y66894643D01*
X44981833Y66751786D01*
X44934214Y66656548D01*
X44886595Y66608929D01*
X44791357Y66561310D01*
X44410404Y66561310D01*
X45934214Y66085120D02*
X45362785Y66085120D01*
X45648500Y66085120D02*
X45648500Y67085120D01*
X45553261Y66942262D01*
X45458023Y66847024D01*
X45362785Y66799405D01*
D20*
X23172619Y37775477D02*
X23172619Y39045477D01*
X23898333Y37775477D02*
X23354047Y38501191D01*
X23898333Y39045477D02*
X23172619Y38319762D01*
X25107857Y37775477D02*
X24382142Y37775477D01*
X24745000Y37775477D02*
X24745000Y39045477D01*
X24624047Y38864048D01*
X24503095Y38743096D01*
X24382142Y38682620D01*
D22*
X7286666Y2071620D02*
X7286666Y1357334D01*
X7239047Y1214477D01*
X7143809Y1119239D01*
X7000952Y1071620D01*
X6905714Y1071620D01*
X8191428Y2071620D02*
X8000952Y2071620D01*
X7905714Y2024000D01*
X7858095Y1976381D01*
X7762857Y1833524D01*
X7715238Y1643048D01*
X7715238Y1262096D01*
X7762857Y1166858D01*
X7810476Y1119239D01*
X7905714Y1071620D01*
X8096190Y1071620D01*
X8191428Y1119239D01*
X8239047Y1166858D01*
X8286666Y1262096D01*
X8286666Y1500191D01*
X8239047Y1595429D01*
X8191428Y1643048D01*
X8096190Y1690667D01*
X7905714Y1690667D01*
X7810476Y1643048D01*
X7762857Y1595429D01*
X7715238Y1500191D01*
X8422380Y103806667D02*
X9136666Y103806667D01*
X9279523Y103759048D01*
X9374761Y103663810D01*
X9422380Y103520953D01*
X9422380Y103425715D01*
X8422380Y104759048D02*
X8422380Y104282858D01*
X8898571Y104235239D01*
X8850952Y104282858D01*
X8803333Y104378096D01*
X8803333Y104616191D01*
X8850952Y104711429D01*
X8898571Y104759048D01*
X8993809Y104806667D01*
X9231904Y104806667D01*
X9327142Y104759048D01*
X9374761Y104711429D01*
X9422380Y104616191D01*
X9422380Y104378096D01*
X9374761Y104282858D01*
X9327142Y104235239D01*
X43456266Y11059420D02*
X43456266Y10345134D01*
X43408647Y10202277D01*
X43313409Y10107039D01*
X43170552Y10059420D01*
X43075314Y10059420D01*
X44361028Y10726086D02*
X44361028Y10059420D01*
X44122933Y11107039D02*
X43884838Y10392753D01*
X44503885Y10392753D01*
X21256666Y13802620D02*
X21256666Y13088334D01*
X21209047Y12945477D01*
X21113809Y12850239D01*
X20970952Y12802620D01*
X20875714Y12802620D01*
X21637619Y13802620D02*
X22256666Y13802620D01*
X21923333Y13421667D01*
X22066190Y13421667D01*
X22161428Y13374048D01*
X22209047Y13326429D01*
X22256666Y13231191D01*
X22256666Y12993096D01*
X22209047Y12897858D01*
X22161428Y12850239D01*
X22066190Y12802620D01*
X21780476Y12802620D01*
X21685238Y12850239D01*
X21637619Y12897858D01*
D10*
X41179761Y54312381D02*
X41084523Y54360000D01*
X40989285Y54455239D01*
X40846428Y54598096D01*
X40751190Y54645715D01*
X40655952Y54645715D01*
X40703571Y54407620D02*
X40608333Y54455239D01*
X40513095Y54550477D01*
X40465476Y54740953D01*
X40465476Y55074286D01*
X40513095Y55264762D01*
X40608333Y55360000D01*
X40703571Y55407620D01*
X40894047Y55407620D01*
X40989285Y55360000D01*
X41084523Y55264762D01*
X41132142Y55074286D01*
X41132142Y54740953D01*
X41084523Y54550477D01*
X40989285Y54455239D01*
X40894047Y54407620D01*
X40703571Y54407620D01*
X42084523Y54407620D02*
X41513095Y54407620D01*
X41798809Y54407620D02*
X41798809Y55407620D01*
X41703571Y55264762D01*
X41608333Y55169524D01*
X41513095Y55121905D01*
D22*
X13502380Y78406667D02*
X14216666Y78406667D01*
X14359523Y78359048D01*
X14454761Y78263810D01*
X14502380Y78120953D01*
X14502380Y78025715D01*
X14502380Y79406667D02*
X14502380Y78835239D01*
X14502380Y79120953D02*
X13502380Y79120953D01*
X13645238Y79025715D01*
X13740476Y78930477D01*
X13788095Y78835239D01*
D10*
X14438333Y68222858D02*
X14390714Y68175239D01*
X14247857Y68127620D01*
X14152619Y68127620D01*
X14009761Y68175239D01*
X13914523Y68270477D01*
X13866904Y68365715D01*
X13819285Y68556191D01*
X13819285Y68699048D01*
X13866904Y68889524D01*
X13914523Y68984762D01*
X14009761Y69080000D01*
X14152619Y69127620D01*
X14247857Y69127620D01*
X14390714Y69080000D01*
X14438333Y69032381D01*
X15295476Y68794286D02*
X15295476Y68127620D01*
X15057380Y69175239D02*
X14819285Y68460953D01*
X15438333Y68460953D01*
X9378333Y84722858D02*
X9330714Y84675239D01*
X9187857Y84627620D01*
X9092619Y84627620D01*
X8949761Y84675239D01*
X8854523Y84770477D01*
X8806904Y84865715D01*
X8759285Y85056191D01*
X8759285Y85199048D01*
X8806904Y85389524D01*
X8854523Y85484762D01*
X8949761Y85580000D01*
X9092619Y85627620D01*
X9187857Y85627620D01*
X9330714Y85580000D01*
X9378333Y85532381D01*
X9711666Y85627620D02*
X10330714Y85627620D01*
X9997380Y85246667D01*
X10140238Y85246667D01*
X10235476Y85199048D01*
X10283095Y85151429D01*
X10330714Y85056191D01*
X10330714Y84818096D01*
X10283095Y84722858D01*
X10235476Y84675239D01*
X10140238Y84627620D01*
X9854523Y84627620D01*
X9759285Y84675239D01*
X9711666Y84722858D01*
X13168333Y89812858D02*
X13120714Y89765239D01*
X12977857Y89717620D01*
X12882619Y89717620D01*
X12739761Y89765239D01*
X12644523Y89860477D01*
X12596904Y89955715D01*
X12549285Y90146191D01*
X12549285Y90289048D01*
X12596904Y90479524D01*
X12644523Y90574762D01*
X12739761Y90670000D01*
X12882619Y90717620D01*
X12977857Y90717620D01*
X13120714Y90670000D01*
X13168333Y90622381D01*
X13549285Y90622381D02*
X13596904Y90670000D01*
X13692142Y90717620D01*
X13930238Y90717620D01*
X14025476Y90670000D01*
X14073095Y90622381D01*
X14120714Y90527143D01*
X14120714Y90431905D01*
X14073095Y90289048D01*
X13501666Y89717620D01*
X14120714Y89717620D01*
X9358333Y93622858D02*
X9310714Y93575239D01*
X9167857Y93527620D01*
X9072619Y93527620D01*
X8929761Y93575239D01*
X8834523Y93670477D01*
X8786904Y93765715D01*
X8739285Y93956191D01*
X8739285Y94099048D01*
X8786904Y94289524D01*
X8834523Y94384762D01*
X8929761Y94480000D01*
X9072619Y94527620D01*
X9167857Y94527620D01*
X9310714Y94480000D01*
X9358333Y94432381D01*
X10310714Y93527620D02*
X9739285Y93527620D01*
X10025000Y93527620D02*
X10025000Y94527620D01*
X9929761Y94384762D01*
X9834523Y94289524D01*
X9739285Y94241905D01*
X46807380Y105941905D02*
X45807380Y105941905D01*
X45807380Y106322858D01*
X45855000Y106418096D01*
X45902619Y106465715D01*
X45997857Y106513334D01*
X46140714Y106513334D01*
X46235952Y106465715D01*
X46283571Y106418096D01*
X46331190Y106322858D01*
X46331190Y105941905D01*
X46235952Y107084762D02*
X46188333Y106989524D01*
X46140714Y106941905D01*
X46045476Y106894286D01*
X45997857Y106894286D01*
X45902619Y106941905D01*
X45855000Y106989524D01*
X45807380Y107084762D01*
X45807380Y107275239D01*
X45855000Y107370477D01*
X45902619Y107418096D01*
X45997857Y107465715D01*
X46045476Y107465715D01*
X46140714Y107418096D01*
X46188333Y107370477D01*
X46235952Y107275239D01*
X46235952Y107084762D01*
X46283571Y106989524D01*
X46331190Y106941905D01*
X46426428Y106894286D01*
X46616904Y106894286D01*
X46712142Y106941905D01*
X46759761Y106989524D01*
X46807380Y107084762D01*
X46807380Y107275239D01*
X46759761Y107370477D01*
X46712142Y107418096D01*
X46616904Y107465715D01*
X46426428Y107465715D01*
X46331190Y107418096D01*
X46283571Y107370477D01*
X46235952Y107275239D01*
X7516904Y110037620D02*
X7516904Y111037620D01*
X7897857Y111037620D01*
X7993095Y110990000D01*
X8040714Y110942381D01*
X8088333Y110847143D01*
X8088333Y110704286D01*
X8040714Y110609048D01*
X7993095Y110561429D01*
X7897857Y110513810D01*
X7516904Y110513810D01*
X8564523Y110037620D02*
X8755000Y110037620D01*
X8850238Y110085239D01*
X8897857Y110132858D01*
X8993095Y110275715D01*
X9040714Y110466191D01*
X9040714Y110847143D01*
X8993095Y110942381D01*
X8945476Y110990000D01*
X8850238Y111037620D01*
X8659761Y111037620D01*
X8564523Y110990000D01*
X8516904Y110942381D01*
X8469285Y110847143D01*
X8469285Y110609048D01*
X8516904Y110513810D01*
X8564523Y110466191D01*
X8659761Y110418572D01*
X8850238Y110418572D01*
X8945476Y110466191D01*
X8993095Y110513810D01*
X9040714Y110609048D01*
M02*
