G04 #@! TF.GenerationSoftware,KiCad,Pcbnew,5.1.5-1.fc30*
G04 #@! TF.CreationDate,2020-06-02T12:14:53+03:00*
G04 #@! TF.ProjectId,savustin_real2,73617675-7374-4696-9e5f-7265616c322e,rev?*
G04 #@! TF.SameCoordinates,PX6d2994cPYa3a71e0*
G04 #@! TF.FileFunction,Soldermask,Bot*
G04 #@! TF.FilePolarity,Negative*
%FSLAX46Y46*%
G04 Gerber Fmt 4.6, Leading zero omitted, Abs format (unit mm)*
G04 Created by KiCad (PCBNEW 5.1.5-1.fc30) date 2020-06-02 12:14:53*
%MOMM*%
%LPD*%
G04 APERTURE LIST*
%ADD10C,2.100000*%
%ADD11C,1.600000*%
%ADD12C,1.650000*%
%ADD13R,1.650000X1.650000*%
%ADD14O,2.400000X2.400000*%
%ADD15R,2.400000X2.400000*%
%ADD16C,1.800000*%
%ADD17R,1.800000X1.800000*%
%ADD18O,1.600000X1.600000*%
%ADD19C,1.950000*%
%ADD20R,1.050000X1.500000*%
%ADD21O,1.050000X1.500000*%
%ADD22R,1.727200X1.727200*%
%ADD23O,1.727200X1.727200*%
G04 APERTURE END LIST*
D10*
X2161200Y19354800D03*
X24661200Y19354800D03*
X52296400Y15849600D03*
X29796400Y15849600D03*
D11*
X27045000Y102600000D03*
X32045000Y102600000D03*
D12*
X33145000Y97100000D03*
X29045000Y96800000D03*
D13*
X26545000Y99100000D03*
D14*
X35560000Y58420000D03*
D15*
X25400000Y58420000D03*
D16*
X50800000Y35560000D03*
D17*
X50800000Y38100000D03*
D18*
X9525000Y63832500D03*
D11*
X9525000Y66372500D03*
D18*
X50800000Y29210000D03*
D11*
X50800000Y31750000D03*
D18*
X46418500Y63817500D03*
D11*
X43878500Y63817500D03*
D16*
X38060000Y31750000D03*
X32960000Y31750000D03*
X20260000Y31750000D03*
X10160000Y31750000D03*
D19*
X5120000Y6350000D03*
X10120000Y6350000D03*
X14605000Y101640000D03*
X14605000Y106640000D03*
X41289600Y4876800D03*
X46289600Y4876800D03*
X19090000Y7620000D03*
X24090000Y7620000D03*
D20*
X42545000Y58420000D03*
D21*
X40005000Y58420000D03*
X41275000Y58420000D03*
D19*
X19685000Y76240000D03*
X19685000Y81240000D03*
D11*
X9565000Y69850000D03*
X12065000Y69850000D03*
X8295000Y87630000D03*
X10795000Y87630000D03*
X8295000Y91440000D03*
X10795000Y91440000D03*
X8295000Y96520000D03*
X10795000Y96520000D03*
D22*
X50165000Y109220000D03*
D23*
X52705000Y109220000D03*
X50165000Y106680000D03*
X52705000Y106680000D03*
X50165000Y104140000D03*
X52705000Y104140000D03*
X50165000Y101600000D03*
X52705000Y101600000D03*
X50165000Y99060000D03*
X52705000Y99060000D03*
X50165000Y96520000D03*
X52705000Y96520000D03*
X50165000Y93980000D03*
X52705000Y93980000D03*
X50165000Y91440000D03*
X52705000Y91440000D03*
X50165000Y88900000D03*
X52705000Y88900000D03*
X50165000Y86360000D03*
X52705000Y86360000D03*
X50165000Y83820000D03*
X52705000Y83820000D03*
X50165000Y81280000D03*
X52705000Y81280000D03*
X50165000Y78740000D03*
X52705000Y78740000D03*
X50165000Y76200000D03*
X52705000Y76200000D03*
X50165000Y73660000D03*
X52705000Y73660000D03*
X50165000Y71120000D03*
X52705000Y71120000D03*
X50165000Y68580000D03*
X52705000Y68580000D03*
X50165000Y66040000D03*
X52705000Y66040000D03*
X50165000Y63500000D03*
X52705000Y63500000D03*
X50165000Y60960000D03*
X52705000Y60960000D03*
X50165000Y58420000D03*
X52705000Y58420000D03*
X50165000Y55880000D03*
X52705000Y55880000D03*
X50165000Y53340000D03*
X52705000Y53340000D03*
D22*
X1905000Y109220000D03*
D23*
X4445000Y109220000D03*
X1905000Y106680000D03*
X4445000Y106680000D03*
X1905000Y104140000D03*
X4445000Y104140000D03*
X1905000Y101600000D03*
X4445000Y101600000D03*
X1905000Y99060000D03*
X4445000Y99060000D03*
X1905000Y96520000D03*
X4445000Y96520000D03*
X1905000Y93980000D03*
X4445000Y93980000D03*
X1905000Y91440000D03*
X4445000Y91440000D03*
X1905000Y88900000D03*
X4445000Y88900000D03*
X1905000Y86360000D03*
X4445000Y86360000D03*
X1905000Y83820000D03*
X4445000Y83820000D03*
X1905000Y81280000D03*
X4445000Y81280000D03*
X1905000Y78740000D03*
X4445000Y78740000D03*
X1905000Y76200000D03*
X4445000Y76200000D03*
X1905000Y73660000D03*
X4445000Y73660000D03*
X1905000Y71120000D03*
X4445000Y71120000D03*
X1905000Y68580000D03*
X4445000Y68580000D03*
X1905000Y66040000D03*
X4445000Y66040000D03*
X1905000Y63500000D03*
X4445000Y63500000D03*
X1905000Y60960000D03*
X4445000Y60960000D03*
X1905000Y58420000D03*
X4445000Y58420000D03*
X1905000Y55880000D03*
X4445000Y55880000D03*
X1905000Y53340000D03*
X4445000Y53340000D03*
M02*
