G04 #@! TF.GenerationSoftware,KiCad,Pcbnew,5.1.5-1.fc30*
G04 #@! TF.CreationDate,2020-06-02T12:14:53+03:00*
G04 #@! TF.ProjectId,savustin_real2,73617675-7374-4696-9e5f-7265616c322e,rev?*
G04 #@! TF.SameCoordinates,PX6d2994cPYa3a71e0*
G04 #@! TF.FileFunction,Copper,L1,Top*
G04 #@! TF.FilePolarity,Positive*
%FSLAX46Y46*%
G04 Gerber Fmt 4.6, Leading zero omitted, Abs format (unit mm)*
G04 Created by KiCad (PCBNEW 5.1.5-1.fc30) date 2020-06-02 12:14:53*
%MOMM*%
%LPD*%
G04 APERTURE LIST*
%ADD10C,2.100000*%
%ADD11R,0.609600X2.207260*%
%ADD12C,1.650000*%
%ADD13R,1.650000X1.650000*%
%ADD14O,2.400000X2.400000*%
%ADD15R,2.400000X2.400000*%
%ADD16C,1.800000*%
%ADD17R,1.800000X1.800000*%
%ADD18O,1.600000X1.600000*%
%ADD19C,1.600000*%
%ADD20C,1.950000*%
%ADD21R,1.050000X1.500000*%
%ADD22O,1.050000X1.500000*%
%ADD23R,1.727200X1.727200*%
%ADD24O,1.727200X1.727200*%
%ADD25C,0.250000*%
%ADD26C,0.500000*%
%ADD27C,2.000000*%
%ADD28C,3.000000*%
G04 APERTURE END LIST*
D10*
X2161200Y19354800D03*
X24661200Y19354800D03*
X52296400Y15849600D03*
X29796400Y15849600D03*
D11*
X12700000Y74853800D03*
X11430000Y74853800D03*
X10160000Y74853800D03*
X8890000Y74853800D03*
X8890000Y80086200D03*
X10160000Y80086200D03*
X11430000Y80086200D03*
X12700000Y80086200D03*
D12*
X33145000Y97100000D03*
X29045000Y96800000D03*
D13*
X26545000Y99100000D03*
D14*
X35560000Y58420000D03*
D15*
X25400000Y58420000D03*
D16*
X50800000Y35560000D03*
D17*
X50800000Y38100000D03*
D18*
X9525000Y63832500D03*
D19*
X9525000Y66372500D03*
D18*
X50800000Y29210000D03*
D19*
X50800000Y31750000D03*
D18*
X46418500Y63817500D03*
D19*
X43878500Y63817500D03*
D16*
X38060000Y31750000D03*
X32960000Y31750000D03*
X20260000Y31750000D03*
X10160000Y31750000D03*
D20*
X5120000Y6350000D03*
X10120000Y6350000D03*
X14605000Y101640000D03*
X14605000Y106640000D03*
X41289600Y4876800D03*
X46289600Y4876800D03*
X19090000Y7620000D03*
X24090000Y7620000D03*
D21*
X42545000Y58420000D03*
D22*
X40005000Y58420000D03*
X41275000Y58420000D03*
D20*
X19685000Y76240000D03*
X19685000Y81240000D03*
D19*
X9565000Y69850000D03*
X12065000Y69850000D03*
X8295000Y87630000D03*
X10795000Y87630000D03*
X8295000Y91440000D03*
X10795000Y91440000D03*
X8295000Y96520000D03*
X10795000Y96520000D03*
D23*
X50165000Y109220000D03*
D24*
X52705000Y109220000D03*
X50165000Y106680000D03*
X52705000Y106680000D03*
X50165000Y104140000D03*
X52705000Y104140000D03*
X50165000Y101600000D03*
X52705000Y101600000D03*
X50165000Y99060000D03*
X52705000Y99060000D03*
X50165000Y96520000D03*
X52705000Y96520000D03*
X50165000Y93980000D03*
X52705000Y93980000D03*
X50165000Y91440000D03*
X52705000Y91440000D03*
X50165000Y88900000D03*
X52705000Y88900000D03*
X50165000Y86360000D03*
X52705000Y86360000D03*
X50165000Y83820000D03*
X52705000Y83820000D03*
X50165000Y81280000D03*
X52705000Y81280000D03*
X50165000Y78740000D03*
X52705000Y78740000D03*
X50165000Y76200000D03*
X52705000Y76200000D03*
X50165000Y73660000D03*
X52705000Y73660000D03*
X50165000Y71120000D03*
X52705000Y71120000D03*
X50165000Y68580000D03*
X52705000Y68580000D03*
X50165000Y66040000D03*
X52705000Y66040000D03*
X50165000Y63500000D03*
X52705000Y63500000D03*
X50165000Y60960000D03*
X52705000Y60960000D03*
X50165000Y58420000D03*
X52705000Y58420000D03*
X50165000Y55880000D03*
X52705000Y55880000D03*
X50165000Y53340000D03*
X52705000Y53340000D03*
D23*
X1905000Y109220000D03*
D24*
X4445000Y109220000D03*
X1905000Y106680000D03*
X4445000Y106680000D03*
X1905000Y104140000D03*
X4445000Y104140000D03*
X1905000Y101600000D03*
X4445000Y101600000D03*
X1905000Y99060000D03*
X4445000Y99060000D03*
X1905000Y96520000D03*
X4445000Y96520000D03*
X1905000Y93980000D03*
X4445000Y93980000D03*
X1905000Y91440000D03*
X4445000Y91440000D03*
X1905000Y88900000D03*
X4445000Y88900000D03*
X1905000Y86360000D03*
X4445000Y86360000D03*
X1905000Y83820000D03*
X4445000Y83820000D03*
X1905000Y81280000D03*
X4445000Y81280000D03*
X1905000Y78740000D03*
X4445000Y78740000D03*
X1905000Y76200000D03*
X4445000Y76200000D03*
X1905000Y73660000D03*
X4445000Y73660000D03*
X1905000Y71120000D03*
X4445000Y71120000D03*
X1905000Y68580000D03*
X4445000Y68580000D03*
X1905000Y66040000D03*
X4445000Y66040000D03*
X1905000Y63500000D03*
X4445000Y63500000D03*
X1905000Y60960000D03*
X4445000Y60960000D03*
X1905000Y58420000D03*
X4445000Y58420000D03*
X1905000Y55880000D03*
X4445000Y55880000D03*
X1905000Y53340000D03*
X4445000Y53340000D03*
D25*
X12700000Y80086200D02*
X12700000Y78732570D01*
X12700000Y78732570D02*
X11437430Y77470000D01*
X7495001Y79487767D02*
X7495001Y86830001D01*
X9512768Y77470000D02*
X7495001Y79487767D01*
X7495001Y86830001D02*
X8295000Y87630000D01*
X11437430Y77470000D02*
X9512768Y77470000D01*
X7543800Y104140000D02*
X7620000Y104216200D01*
D26*
X12065000Y104140000D02*
X14605000Y101600000D01*
X1905000Y104140000D02*
X12065000Y104140000D01*
D25*
X14605000Y100330000D02*
X14605000Y101640000D01*
X10795000Y96520000D02*
X14605000Y100330000D01*
X11594999Y95720001D02*
X10795000Y96520000D01*
X13335000Y93980000D02*
X11594999Y95720001D01*
X13335000Y87630000D02*
X13335000Y93980000D01*
X8890000Y80086200D02*
X8890000Y83185000D01*
X8890000Y83185000D02*
X13335000Y87630000D01*
X10795000Y87630000D02*
X10795000Y91440000D01*
X4445000Y101600000D02*
X1905000Y101600000D01*
X5715000Y96520000D02*
X9995001Y92239999D01*
X4445000Y101600000D02*
X5715000Y100330000D01*
X9995001Y92239999D02*
X10795000Y91440000D01*
X5715000Y100330000D02*
X5715000Y96520000D01*
X35500000Y29210000D02*
X32960000Y31750000D01*
X50800000Y29210000D02*
X35500000Y29210000D01*
X32960000Y31750000D02*
X25400000Y39310000D01*
X25400000Y39310000D02*
X25400000Y58420000D01*
X4445000Y71120000D02*
X17145000Y71120000D01*
X26545000Y80520000D02*
X21907500Y75882500D01*
X26545000Y99100000D02*
X26545000Y80520000D01*
X17145000Y71120000D02*
X21907500Y75882500D01*
X21907500Y75882500D02*
X22225000Y76200000D01*
X9525000Y69810000D02*
X9565000Y69850000D01*
X9525000Y66372500D02*
X9525000Y69810000D01*
X8295000Y68580000D02*
X4445000Y68580000D01*
X9565000Y69850000D02*
X8295000Y68580000D01*
X1905000Y60960000D02*
X3093601Y59771399D01*
X12065000Y67975000D02*
X12065000Y69850000D01*
X12065000Y69850000D02*
X17145000Y69850000D01*
X33145000Y85723000D02*
X26289000Y78867000D01*
X33145000Y97100000D02*
X33145000Y85723000D01*
X17145000Y69850000D02*
X26289000Y78867000D01*
X26289000Y78867000D02*
X28860750Y81438750D01*
X4508500Y59753500D02*
X5015529Y59771399D01*
X3093601Y59771399D02*
X4508500Y59753500D01*
X5446000Y59753500D02*
X4508500Y59753500D01*
X9525000Y63832500D02*
X5446000Y59753500D01*
X12065000Y66372500D02*
X12065000Y69850000D01*
X9525000Y63832500D02*
X12065000Y66372500D01*
X50800000Y31750000D02*
X50800000Y35560000D01*
X44410000Y38100000D02*
X38060000Y31750000D01*
X50800000Y38100000D02*
X44410000Y38100000D01*
X40005000Y58420000D02*
X40005000Y42545000D01*
X40005000Y42545000D02*
X44450000Y38100000D01*
X44450000Y38100000D02*
X50800000Y38100000D01*
X40005000Y58420000D02*
X35560000Y58420000D01*
X19685000Y81260000D02*
X19685000Y81240000D01*
X17125000Y83820000D02*
X19685000Y81260000D01*
X10160000Y80086200D02*
X10160000Y81439830D01*
X12540170Y83820000D02*
X17125000Y83820000D01*
X10160000Y81439830D02*
X12540170Y83820000D01*
X19645000Y76240000D02*
X19685000Y76240000D01*
X13335000Y82550000D02*
X19645000Y76240000D01*
X12540170Y82550000D02*
X13335000Y82550000D01*
X11430000Y80086200D02*
X11430000Y81439830D01*
X11430000Y81439830D02*
X12540170Y82550000D01*
D27*
X24090000Y7620000D02*
X24090000Y3770000D01*
X24090000Y3770000D02*
X22860000Y2540000D01*
X13930000Y2540000D02*
X10120000Y6350000D01*
X22860000Y2540000D02*
X13930000Y2540000D01*
D28*
X29796400Y13326400D02*
X24090000Y7620000D01*
X29796400Y15849600D02*
X29796400Y13326400D01*
X17780000Y29270000D02*
X20260000Y31750000D01*
X19090000Y7620000D02*
X17780000Y8930000D01*
X17780000Y8930000D02*
X17780000Y29270000D01*
X24661200Y19100800D02*
X24661200Y21460800D01*
X24661200Y21460800D02*
X26111200Y22910800D01*
X26670000Y22860000D02*
X27940000Y22860000D01*
D25*
X27940000Y22860000D02*
X27760000Y22860000D01*
X49757269Y77551399D02*
X51516399Y77551399D01*
X51841401Y77876401D02*
X52705000Y78740000D01*
X49674899Y77551399D02*
X51516399Y77551399D01*
X46418500Y74295000D02*
X49674899Y77551399D01*
X51516399Y77551399D02*
X51841401Y77876401D01*
X46418500Y63817500D02*
X46418500Y74295000D01*
X5308599Y77063599D02*
X4445000Y76200000D01*
X9303831Y77063599D02*
X5308599Y77063599D01*
X10160000Y74853800D02*
X10160000Y76207430D01*
X10160000Y76207430D02*
X9303831Y77063599D01*
X11430000Y73500170D02*
X11430000Y74853800D01*
X10401229Y72471399D02*
X11430000Y73500170D01*
X1905000Y73660000D02*
X3093601Y72471399D01*
X3093601Y72471399D02*
X10401229Y72471399D01*
X1041401Y71983599D02*
X1905000Y71120000D01*
X716399Y74230529D02*
X716399Y72308601D01*
X716399Y72308601D02*
X1041401Y71983599D01*
X1339670Y74853800D02*
X716399Y74230529D01*
X8890000Y74853800D02*
X1339670Y74853800D01*
X41275000Y61214000D02*
X43878500Y63817500D01*
X41275000Y58420000D02*
X41275000Y61214000D01*
D28*
X46289600Y4989200D02*
X46289600Y4876800D01*
X52222400Y16126800D02*
X52222400Y10922000D01*
X52273200Y10922000D02*
X46289600Y4938400D01*
X40680000Y17740000D02*
X35560000Y22860000D01*
X41289600Y4876800D02*
X40680000Y5486400D01*
X35560000Y22860000D02*
X27940000Y22860000D01*
X40680000Y5486400D02*
X40680000Y17740000D01*
X2110400Y23802000D02*
X10109200Y31800800D01*
X2110400Y19405600D02*
X2110400Y23802000D01*
D27*
X3690342Y6350000D02*
X2110400Y7929942D01*
X5069200Y6350000D02*
X3690342Y6350000D01*
X2110400Y7929942D02*
X2110400Y17869876D01*
M02*
